<svg width="24" height="24" viewBox="0 0 24 24" fill="none" xmlns="http://www.w3.org/2000/svg">
<g opacity="0.2">
<path fill-rule="evenodd" clip-rule="evenodd" d="M4.48289 2H19.5171C20.8954 2 22 3.15 22 4.561V9.97C22 11.39 20.8954 12.53 19.5171 12.53H4.48289C3.11437 12.53 2 11.39 2 9.97V4.561C2 3.15 3.11437 2 4.48289 2ZM4.54 15.4697H19.46C20.87 15.4697 22 16.6107 22 18.0307V19.4397C22 20.8497 20.87 21.9997 19.46 21.9997H4.54C3.14 21.9997 2 20.8497 2 19.4397V18.0307C2 16.6107 3.14 15.4697 4.54 15.4697Z" fill="#130F26"/>
</g>
</svg>
