<svg width="98" height="76" viewBox="0 0 98 76" fill="none" xmlns="http://www.w3.org/2000/svg">
<path d="M3.02843 76C2.22085 76 1.49403 75.7233 0.84796 75.17C0.282653 74.5376 0 73.8262 0 73.0357V17.3075C0 16.4379 0.282653 15.7265 0.84796 15.1732C1.49403 14.6199 2.22085 14.3432 3.02843 14.3432H17.0803C17.9687 14.3432 18.6955 14.6199 19.2608 15.1732C19.8261 15.7265 20.1088 16.4379 20.1088 17.3075V21.3389C22.047 19.0465 24.5505 17.1098 27.6193 15.5289C30.6881 13.948 34.1607 13.1575 38.0371 13.1575C46.9205 13.1575 53.0177 16.5565 56.3288 23.3546C58.267 20.3508 60.9724 17.9003 64.445 16.0032C67.9176 14.1061 71.6325 13.1575 75.5896 13.1575C82.2118 13.1575 87.5822 15.3708 91.7009 19.7975C95.9003 24.145 98 30.6664 98 39.3616V73.0357C98 73.8262 97.7173 74.5376 97.152 75.17C96.5867 75.7233 95.8599 76 94.9716 76H80.0717C79.1834 76 78.4162 75.7233 77.7701 75.17C77.2048 74.6167 76.9221 73.9053 76.9221 73.0357V40.1916C76.9221 36.5555 76.1145 33.9074 74.4994 32.2474C72.965 30.5083 70.8653 29.6388 68.2002 29.6388C65.6967 29.6388 63.6374 30.5083 62.0222 32.2474C60.4878 33.9074 59.7206 36.5555 59.7206 40.1916V73.0357C59.7206 73.8262 59.438 74.5376 58.8727 75.17C58.3074 75.7233 57.5806 76 56.6922 76H41.7923C40.904 76 40.1368 75.7233 39.4907 75.17C38.9254 74.6167 38.6428 73.9053 38.6428 73.0357V40.1916C38.6428 36.5555 37.8352 33.9074 36.22 32.2474C34.6049 30.5083 32.5051 29.6388 29.9209 29.6388C27.4174 29.6388 25.3581 30.5083 23.7429 32.2474C22.1277 33.9074 21.3201 36.5159 21.3201 40.0731V73.0357C21.3201 73.8262 21.0375 74.5376 20.4722 75.17C19.9069 75.7233 19.1801 76 18.2917 76H3.02843Z" fill="#2142B2"/>
<path d="M66.2973 52.5271C66.2973 61.4285 58.9131 68.7173 49.7135 68.7173C40.5139 68.7173 33.1296 61.4285 33.1296 52.5271C33.1296 43.6258 40.5139 36.337 49.7135 36.337C58.9131 36.337 66.2973 43.6258 66.2973 52.5271Z" fill="#2ED9FF" stroke="white" stroke-width="4"/>
<rect x="0.624634" width="20.5251" height="10.0077" rx="2" fill="#2ED9FF"/>
</svg>
