<svg width="150" height="150" viewBox="0 0 150 150" fill="none" xmlns="http://www.w3.org/2000/svg">
<path opacity="0.1" d="M0 40C0 21.1438 0 11.7157 5.85786 5.85786C11.7157 0 21.1438 0 40 0H110C128.856 0 138.284 0 144.142 5.85786C150 11.7157 150 21.1438 150 40V110C150 128.856 150 138.284 144.142 144.142C138.284 150 128.856 150 110 150H40C21.1438 150 11.7157 150 5.85786 144.142C0 138.284 0 128.856 0 110V40Z" fill="#2ED9FF"/>
<path d="M102.928 101.481L80.8203 79.6352L76.4427 84.0654L98.5503 105.911L102.928 101.481Z" fill="#2142B2"/>
<path d="M111.371 107.35L94.1714 90.3546C94.0757 90.26 93.9213 90.2609 93.8267 90.3567L87.3167 96.9449C87.2221 97.0406 87.223 97.195 87.3188 97.2896L104.519 114.285C104.614 114.38 104.769 114.379 104.863 114.283L111.373 107.695C111.468 107.599 111.467 107.445 111.371 107.35Z" fill="#2ED9FF"/>
<path d="M61.2246 90.6216C76.434 90.6216 88.7637 78.2919 88.7637 63.0825C88.7637 47.8731 76.434 35.5434 61.2246 35.5434C46.0152 35.5434 33.6855 47.8731 33.6855 63.0825C33.6855 78.2919 46.0152 90.6216 61.2246 90.6216Z" fill="#2142B2"/>
<path d="M61.2233 86.1281C73.951 86.1281 84.2689 75.8103 84.2689 63.0826C84.2689 50.3549 73.951 40.037 61.2233 40.037C48.4956 40.037 38.1777 50.3549 38.1777 63.0826C38.1777 75.8103 48.4956 86.1281 61.2233 86.1281Z" fill="white"/>
<path d="M107.784 38.1872C101.324 36.0933 94.343 39.6346 92.2407 46.1209C90.1469 52.5806 93.6881 59.5616 100.174 61.6639C106.661 63.7662 113.624 60.1902 115.718 53.7301C117.812 47.2701 114.244 40.2809 107.784 38.1872ZM105.835 44.2008C106.558 44.4352 107.195 44.879 107.665 45.476C108.136 46.073 108.418 46.7963 108.477 47.5541C108.536 48.3119 108.368 49.0701 107.996 49.7326C107.623 50.395 107.062 50.9318 106.383 51.2749C105.705 51.618 104.94 51.752 104.186 51.6598C103.431 51.5676 102.721 51.2534 102.146 50.757C101.57 50.2607 101.155 49.6046 100.953 48.8719C100.75 48.1392 100.77 47.3629 101.01 46.6416C101.657 44.6458 103.838 43.5539 105.835 44.2008ZM100.958 59.2479C98.8114 58.5559 96.9726 57.1392 95.7561 55.2406C98.0325 53.9471 100.413 53.5868 102.566 54.2848C104.72 54.9827 106.471 56.6529 107.521 59.0537C105.422 59.8777 103.102 59.9464 100.958 59.2479Z" fill="#2ED9FF"/>
<path d="M54.0166 97.0517C52.8946 97.6244 51.9676 98.517 51.3528 99.6166C50.7381 100.716 50.4632 101.973 50.563 103.229C50.6627 104.485 51.1326 105.683 51.9132 106.672C52.6938 107.66 53.7501 108.395 54.9485 108.784C56.1469 109.172 57.4335 109.197 58.6457 108.854C59.8579 108.511 60.9412 107.816 61.7586 106.858C62.5761 105.899 63.0909 104.72 63.2381 103.469C63.3852 102.218 63.1581 100.951 62.5853 99.829C61.816 98.3257 60.4817 97.189 58.8753 96.6684C57.2689 96.1477 55.5215 96.2856 54.0166 97.0517ZM55.5001 99.958C55.8496 99.7796 56.2442 99.709 56.6338 99.7552C57.0234 99.8014 57.3906 99.9622 57.6887 100.217C57.9867 100.473 58.2023 100.81 58.3081 101.188C58.4138 101.566 58.405 101.967 58.2826 102.34C58.1603 102.712 57.93 103.041 57.6209 103.282C57.3118 103.524 56.9379 103.668 56.5466 103.697C56.1553 103.726 55.7643 103.638 55.423 103.445C55.0818 103.251 54.8058 102.96 54.63 102.61C54.397 102.142 54.3577 101.601 54.5206 101.105C54.6834 100.609 55.0354 100.196 55.5001 99.9578V99.958ZM59.2121 107.23C58.1762 107.761 56.988 107.915 55.851 107.666C56.2097 106.363 56.947 105.363 57.988 104.832C59.0289 104.3 60.2774 104.271 61.5369 104.764C61.0715 105.831 60.2496 106.702 59.2121 107.23V107.23Z" fill="#2ED9FF"/>
</svg>
