<svg width="116" height="125" viewBox="0 0 116 125" fill="none" xmlns="http://www.w3.org/2000/svg">
<path d="M7.16 112.8H8.648V124H7.448L1.688 115.632V124H0.2V112.8H1.4L7.16 121.152V112.8ZM17.6518 122.992C16.8304 123.803 15.8331 124.208 14.6598 124.208C13.4864 124.208 12.4891 123.803 11.6678 122.992C10.8571 122.181 10.4518 121.184 10.4518 120C10.4518 118.816 10.8571 117.819 11.6678 117.008C12.4891 116.197 13.4864 115.792 14.6598 115.792C15.8331 115.792 16.8304 116.197 17.6518 117.008C18.4731 117.819 18.8837 118.816 18.8837 120C18.8837 121.184 18.4731 122.181 17.6518 122.992ZM14.6598 122.848C15.4598 122.848 16.1318 122.576 16.6758 122.032C17.2198 121.488 17.4918 120.811 17.4918 120C17.4918 119.189 17.2198 118.512 16.6758 117.968C16.1318 117.424 15.4598 117.152 14.6598 117.152C13.8704 117.152 13.2038 117.424 12.6598 117.968C12.1158 118.512 11.8438 119.189 11.8438 120C11.8438 120.811 12.1158 121.488 12.6598 122.032C13.2038 122.576 13.8704 122.848 14.6598 122.848ZM25.9168 117.344C26.3754 116.352 27.2074 115.856 28.4128 115.856V117.312C27.7301 117.28 27.1434 117.461 26.6528 117.856C26.1621 118.251 25.9168 118.885 25.9168 119.76V124H24.5247V116H25.9168V117.344ZM30.3133 120.64C30.4519 121.355 30.7773 121.909 31.2893 122.304C31.8119 122.699 32.4519 122.896 33.2093 122.896C34.2653 122.896 35.0333 122.507 35.5133 121.728L36.6973 122.4C35.9186 123.605 34.7453 124.208 33.1773 124.208C31.9079 124.208 30.8733 123.813 30.0733 123.024C29.2839 122.224 28.8893 121.216 28.8893 120C28.8893 118.795 29.2786 117.792 30.0573 116.992C30.8359 116.192 31.8439 115.792 33.0813 115.792C34.2546 115.792 35.2093 116.208 35.9453 117.04C36.6919 117.861 37.0653 118.853 37.0653 120.016C37.0653 120.219 37.0493 120.427 37.0173 120.64H30.3133ZM33.0813 117.104C32.3346 117.104 31.7159 117.317 31.2253 117.744C30.7346 118.16 30.4306 118.72 30.3133 119.424H35.6573C35.5399 118.667 35.2413 118.091 34.7613 117.696C34.2813 117.301 33.7213 117.104 33.0813 117.104ZM39.5529 118.16C39.5529 118.469 39.7075 118.72 40.0169 118.912C40.3262 119.093 40.6995 119.243 41.1369 119.36C41.5742 119.467 42.0115 119.595 42.4489 119.744C42.8862 119.883 43.2595 120.128 43.5689 120.48C43.8782 120.821 44.0329 121.264 44.0329 121.808C44.0329 122.533 43.7502 123.115 43.1849 123.552C42.6302 123.989 41.9155 124.208 41.0409 124.208C40.2622 124.208 39.5955 124.037 39.0409 123.696C38.4862 123.355 38.0915 122.901 37.8569 122.336L39.0569 121.648C39.1849 122.032 39.4249 122.336 39.7769 122.56C40.1289 122.784 40.5502 122.896 41.0409 122.896C41.4995 122.896 41.8782 122.811 42.1769 122.64C42.4755 122.459 42.6249 122.181 42.6249 121.808C42.6249 121.499 42.4702 121.253 42.1609 121.072C41.8515 120.88 41.4782 120.731 41.0409 120.624C40.6035 120.507 40.1662 120.373 39.7289 120.224C39.2915 120.075 38.9182 119.829 38.6089 119.488C38.2995 119.147 38.1449 118.709 38.1449 118.176C38.1449 117.483 38.4115 116.912 38.9449 116.464C39.4889 116.016 40.1662 115.792 40.9769 115.792C41.6275 115.792 42.2035 115.941 42.7049 116.24C43.2169 116.528 43.6009 116.933 43.8569 117.456L42.6889 118.112C42.4009 117.429 41.8302 117.088 40.9769 117.088C40.5822 117.088 40.2462 117.184 39.9689 117.376C39.6915 117.557 39.5529 117.819 39.5529 118.16ZM51.1229 116H52.5149V124H51.1229V122.848C50.5575 123.755 49.6935 124.208 48.5309 124.208C47.5922 124.208 46.8402 123.915 46.2749 123.328C45.7095 122.731 45.4269 121.925 45.4269 120.912V116H46.8189V120.832C46.8189 121.483 46.9949 121.989 47.3469 122.352C47.6989 122.704 48.1842 122.88 48.8029 122.88C49.4962 122.88 50.0562 122.667 50.4829 122.24C50.9095 121.803 51.1229 121.136 51.1229 120.24V116ZM54.6341 124V112.32H56.0261V124H54.6341ZM62.5018 117.344H60.3738V121.68C60.3738 122.075 60.4484 122.357 60.5978 122.528C60.7578 122.688 60.9978 122.773 61.3177 122.784C61.6377 122.784 62.0324 122.773 62.5018 122.752V124C61.2858 124.16 60.3951 124.064 59.8298 123.712C59.2644 123.349 58.9818 122.672 58.9818 121.68V117.344H57.3978V116H58.9818V114.176L60.3738 113.76V116H62.5018V117.344ZM64.9591 118.16C64.9591 118.469 65.1138 118.72 65.4231 118.912C65.7325 119.093 66.1058 119.243 66.5431 119.36C66.9805 119.467 67.4178 119.595 67.8551 119.744C68.2925 119.883 68.6658 120.128 68.9751 120.48C69.2845 120.821 69.4391 121.264 69.4391 121.808C69.4391 122.533 69.1565 123.115 68.5911 123.552C68.0365 123.989 67.3218 124.208 66.4471 124.208C65.6685 124.208 65.0018 124.037 64.4471 123.696C63.8925 123.355 63.4978 122.901 63.2631 122.336L64.4631 121.648C64.5911 122.032 64.8311 122.336 65.1831 122.56C65.5351 122.784 65.9565 122.896 66.4471 122.896C66.9058 122.896 67.2845 122.811 67.5831 122.64C67.8818 122.459 68.0311 122.181 68.0311 121.808C68.0311 121.499 67.8765 121.253 67.5671 121.072C67.2578 120.88 66.8845 120.731 66.4471 120.624C66.0098 120.507 65.5725 120.373 65.1351 120.224C64.6978 120.075 64.3245 119.829 64.0151 119.488C63.7058 119.147 63.5511 118.709 63.5511 118.176C63.5511 117.483 63.8178 116.912 64.3511 116.464C64.8951 116.016 65.5725 115.792 66.3831 115.792C67.0338 115.792 67.6098 115.941 68.1111 116.24C68.6231 116.528 69.0071 116.933 69.2631 117.456L68.0951 118.112C67.8071 117.429 67.2365 117.088 66.3831 117.088C65.9885 117.088 65.6525 117.184 65.3751 117.376C65.0978 117.557 64.9591 117.819 64.9591 118.16ZM79.1993 113.936C77.7913 113.819 77.0873 114.427 77.0873 115.76V116H79.1993V117.344H77.0873V124H75.6953V117.344H74.4153V116H75.6953V115.76C75.6953 114.683 75.9939 113.867 76.5913 113.312C77.1993 112.757 78.0686 112.517 79.1993 112.592V113.936ZM86.5736 122.992C85.7523 123.803 84.755 124.208 83.5816 124.208C82.4083 124.208 81.411 123.803 80.5896 122.992C79.779 122.181 79.3736 121.184 79.3736 120C79.3736 118.816 79.779 117.819 80.5896 117.008C81.411 116.197 82.4083 115.792 83.5816 115.792C84.755 115.792 85.7523 116.197 86.5736 117.008C87.395 117.819 87.8056 118.816 87.8056 120C87.8056 121.184 87.395 122.181 86.5736 122.992ZM83.5816 122.848C84.3816 122.848 85.0536 122.576 85.5976 122.032C86.1416 121.488 86.4136 120.811 86.4136 120C86.4136 119.189 86.1416 118.512 85.5976 117.968C85.0536 117.424 84.3816 117.152 83.5816 117.152C82.7923 117.152 82.1256 117.424 81.5816 117.968C81.0376 118.512 80.7656 119.189 80.7656 120C80.7656 120.811 81.0376 121.488 81.5816 122.032C82.1256 122.576 82.7923 122.848 83.5816 122.848ZM94.9666 116H96.3586V124H94.9666V122.848C94.4013 123.755 93.5373 124.208 92.3746 124.208C91.436 124.208 90.684 123.915 90.1186 123.328C89.5533 122.731 89.2706 121.925 89.2706 120.912V116H90.6626V120.832C90.6626 121.483 90.8386 121.989 91.1906 122.352C91.5426 122.704 92.028 122.88 92.6466 122.88C93.34 122.88 93.9 122.667 94.3266 122.24C94.7533 121.803 94.9666 121.136 94.9666 120.24V116ZM102.462 115.792C103.401 115.792 104.153 116.091 104.718 116.688C105.283 117.275 105.566 118.075 105.566 119.088V124H104.174V119.168C104.174 118.517 103.998 118.016 103.646 117.664C103.294 117.301 102.809 117.12 102.19 117.12C101.497 117.12 100.937 117.339 100.51 117.776C100.083 118.203 99.8699 118.864 99.8699 119.76V124H98.4779V116H99.8699V117.152C100.435 116.245 101.299 115.792 102.462 115.792ZM114.133 112.8H115.525V124H114.133V122.624C113.44 123.68 112.432 124.208 111.109 124.208C109.989 124.208 109.034 123.803 108.245 122.992C107.456 122.171 107.061 121.173 107.061 120C107.061 118.827 107.456 117.835 108.245 117.024C109.034 116.203 109.989 115.792 111.109 115.792C112.432 115.792 113.44 116.32 114.133 117.376V112.8ZM111.285 122.864C112.096 122.864 112.773 122.592 113.317 122.048C113.861 121.493 114.133 120.811 114.133 120C114.133 119.189 113.861 118.512 113.317 117.968C112.773 117.413 112.096 117.136 111.285 117.136C110.485 117.136 109.813 117.413 109.269 117.968C108.725 118.512 108.453 119.189 108.453 120C108.453 120.811 108.725 121.493 109.269 122.048C109.813 122.592 110.485 122.864 111.285 122.864Z" fill="#242A3D"/>
<path opacity="0.1" d="M10 40C10 21.1438 10 11.7157 15.8579 5.85786C21.7157 0 31.1438 0 50 0H66C84.8562 0 94.2843 0 100.142 5.85786C106 11.7157 106 21.1438 106 40V56C106 74.8562 106 84.2843 100.142 90.1421C94.2843 96 84.8562 96 66 96H50C31.1438 96 21.7157 96 15.8579 90.1421C10 84.2843 10 74.8562 10 56V40Z" fill="#2ED9FF"/>
<path d="M75.872 64.9476L61.7231 50.9666L58.9215 53.8019L73.0704 67.7829L75.872 64.9476Z" fill="#2142B2"/>
<path d="M81.2771 68.7042L70.2692 57.8269C70.2079 57.7664 70.1091 57.767 70.0485 57.8283L65.8821 62.0447C65.8216 62.106 65.8222 62.2048 65.8835 62.2653L76.8914 73.1426C76.9526 73.2032 77.0514 73.2026 77.112 73.1413L81.2784 68.9248C81.3389 68.8636 81.3384 68.7648 81.2771 68.7042Z" fill="#2ED9FF"/>
<path d="M49.1831 57.9978C58.9171 57.9978 66.8081 50.1068 66.8081 40.3728C66.8081 30.6388 58.9171 22.7478 49.1831 22.7478C39.4491 22.7478 31.5581 30.6388 31.5581 40.3728C31.5581 50.1068 39.4491 57.9978 49.1831 57.9978Z" fill="#2142B2"/>
<path d="M49.1828 55.122C57.3285 55.122 63.9319 48.5185 63.9319 40.3728C63.9319 32.2271 57.3285 25.6237 49.1828 25.6237C41.037 25.6237 34.4336 32.2271 34.4336 40.3728C34.4336 48.5185 41.037 55.122 49.1828 55.122Z" fill="white"/>
<path d="M78.9803 24.4397C74.8461 23.0997 70.3782 25.3661 69.0327 29.5173C67.6927 33.6515 69.9591 38.1194 74.1104 39.4648C78.2617 40.8103 82.7178 38.5216 84.0581 34.3872C85.3985 30.2528 83.1147 25.7797 78.9803 24.4397ZM77.7328 28.2885C78.1956 28.4385 78.6034 28.7225 78.9045 29.1046C79.2055 29.4867 79.3864 29.9496 79.424 30.4346C79.4616 30.9196 79.3544 31.4048 79.1158 31.8288C78.8773 32.2527 78.5182 32.5963 78.0841 32.8159C77.6501 33.0355 77.1606 33.1212 76.6777 33.0622C76.1948 33.0032 75.7404 32.8021 75.3719 32.4844C75.0035 32.1668 74.7378 31.7469 74.6083 31.2779C74.4789 30.809 74.4917 30.3122 74.645 29.8506C75.059 28.5733 76.4553 27.8745 77.7328 28.2885ZM74.6115 37.9186C73.238 37.4757 72.0612 36.569 71.2826 35.3539C72.7395 34.5261 74.2629 34.2955 75.6411 34.7422C77.0193 35.1889 78.1399 36.2578 78.812 37.7943C77.4687 38.3217 75.9837 38.3656 74.6115 37.9186Z" fill="#2ED9FF"/>
<path d="M44.5698 62.1131C43.8517 62.4796 43.2584 63.0509 42.865 63.7546C42.4716 64.4583 42.2956 65.2629 42.3595 66.0666C42.4233 66.8703 42.724 67.637 43.2236 68.2698C43.7232 68.9026 44.3993 69.3731 45.1662 69.6216C45.9332 69.8702 46.7566 69.8858 47.5324 69.6664C48.3082 69.447 49.0015 69.0024 49.5247 68.389C50.0479 67.7755 50.3774 67.0207 50.4715 66.22C50.5657 65.4193 50.4203 64.6086 50.0538 63.8905C49.5614 62.9285 48.7075 62.201 47.6794 61.8678C46.6513 61.5345 45.5329 61.6228 44.5698 62.1131ZM45.5193 63.9731C45.7429 63.859 45.9954 63.8138 46.2448 63.8433C46.4942 63.8729 46.7292 63.9758 46.9199 64.1391C47.1107 64.3024 47.2487 64.5187 47.3163 64.7605C47.384 65.0023 47.3784 65.2588 47.3001 65.4974C47.2218 65.736 47.0743 65.946 46.8765 66.1006C46.6787 66.2553 46.4394 66.3478 46.189 66.3663C45.9386 66.3848 45.6883 66.3285 45.4699 66.2046C45.2515 66.0806 45.0749 65.8946 44.9624 65.6701C44.8133 65.3708 44.7881 65.0249 44.8923 64.7072C44.9966 64.3895 45.2218 64.1257 45.5193 63.973V63.9731ZM47.8949 68.6274C47.2319 68.967 46.4715 69.0656 45.7438 68.9063C45.9734 68.0723 46.4453 67.4322 47.1115 67.0922C47.7777 66.7522 48.5767 66.7334 49.3828 67.0488C49.0849 67.7316 48.5589 68.2896 47.8949 68.6272V68.6274Z" fill="#2ED9FF"/>
</svg>
