<svg width="190" height="172" viewBox="0 0 190 172" fill="none" xmlns="http://www.w3.org/2000/svg">
<path d="M27.816 168.208C26.7707 168.208 25.8747 167.963 25.128 167.472C24.392 166.981 23.8747 166.309 23.576 165.456L24.856 164.72C25.2933 166.075 26.2907 166.752 27.848 166.752C28.616 166.752 29.2027 166.597 29.608 166.288C30.0133 165.968 30.216 165.547 30.216 165.024C30.216 164.491 30.0133 164.091 29.608 163.824C29.2027 163.557 28.5253 163.275 27.576 162.976C27.1067 162.827 26.7493 162.709 26.504 162.624C26.2587 162.528 25.9493 162.389 25.576 162.208C25.2133 162.016 24.9413 161.824 24.76 161.632C24.5787 161.429 24.4133 161.168 24.264 160.848C24.1253 160.528 24.056 160.165 24.056 159.76C24.056 158.789 24.3973 158.021 25.08 157.456C25.7627 156.88 26.5947 156.592 27.576 156.592C28.4613 156.592 29.2293 156.816 29.88 157.264C30.5413 157.712 31.0373 158.304 31.368 159.04L30.12 159.76C29.64 158.608 28.792 158.032 27.576 158.032C26.968 158.032 26.4773 158.181 26.104 158.48C25.7307 158.779 25.544 159.184 25.544 159.696C25.544 160.187 25.72 160.56 26.072 160.816C26.424 161.072 27.032 161.339 27.896 161.616C28.2053 161.712 28.424 161.781 28.552 161.824C28.68 161.867 28.8773 161.941 29.144 162.048C29.4213 162.155 29.624 162.24 29.752 162.304C29.88 162.368 30.0507 162.459 30.264 162.576C30.488 162.693 30.6533 162.805 30.76 162.912C30.8667 163.019 30.9893 163.152 31.128 163.312C31.2773 163.461 31.384 163.616 31.448 163.776C31.512 163.936 31.5653 164.123 31.608 164.336C31.6613 164.539 31.688 164.757 31.688 164.992C31.688 165.973 31.3307 166.757 30.616 167.344C29.9013 167.92 28.968 168.208 27.816 168.208ZM38.826 160H40.218V168H38.826V166.848C38.2607 167.755 37.3967 168.208 36.234 168.208C35.2953 168.208 34.5433 167.915 33.978 167.328C33.4127 166.731 33.13 165.925 33.13 164.912V160H34.522V164.832C34.522 165.483 34.698 165.989 35.05 166.352C35.402 166.704 35.8873 166.88 36.506 166.88C37.1993 166.88 37.7593 166.667 38.186 166.24C38.6127 165.803 38.826 165.136 38.826 164.24V160ZM46.0973 168.208C44.8919 168.208 43.8893 167.808 43.0893 167.008C42.2893 166.197 41.8893 165.195 41.8893 164C41.8893 162.805 42.2893 161.808 43.0893 161.008C43.8893 160.197 44.8919 159.792 46.0973 159.792C46.8866 159.792 47.5959 159.984 48.2253 160.368C48.8546 160.741 49.3239 161.248 49.6333 161.888L48.4653 162.56C48.2626 162.133 47.9479 161.792 47.5213 161.536C47.1053 161.28 46.6306 161.152 46.0973 161.152C45.2973 161.152 44.6253 161.424 44.0813 161.968C43.5479 162.512 43.2812 163.189 43.2812 164C43.2812 164.8 43.5479 165.472 44.0813 166.016C44.6253 166.56 45.2973 166.832 46.0973 166.832C46.6306 166.832 47.1106 166.709 47.5373 166.464C47.9639 166.208 48.2893 165.867 48.5133 165.44L49.6973 166.128C49.3559 166.757 48.8653 167.264 48.2253 167.648C47.5853 168.021 46.8759 168.208 46.0973 168.208ZM54.7223 168.208C53.5169 168.208 52.5143 167.808 51.7143 167.008C50.9143 166.197 50.5143 165.195 50.5143 164C50.5143 162.805 50.9143 161.808 51.7143 161.008C52.5143 160.197 53.5169 159.792 54.7223 159.792C55.5116 159.792 56.2209 159.984 56.8503 160.368C57.4796 160.741 57.9489 161.248 58.2583 161.888L57.0903 162.56C56.8876 162.133 56.5729 161.792 56.1463 161.536C55.7303 161.28 55.2556 161.152 54.7223 161.152C53.9223 161.152 53.2503 161.424 52.7063 161.968C52.1729 162.512 51.9062 163.189 51.9062 164C51.9062 164.8 52.1729 165.472 52.7063 166.016C53.2503 166.56 53.9223 166.832 54.7223 166.832C55.2556 166.832 55.7356 166.709 56.1623 166.464C56.5889 166.208 56.9143 165.867 57.1383 165.44L58.3223 166.128C57.9809 166.757 57.4903 167.264 56.8503 167.648C56.2103 168.021 55.5009 168.208 54.7223 168.208ZM60.5633 164.64C60.7019 165.355 61.0273 165.909 61.5393 166.304C62.0619 166.699 62.7019 166.896 63.4593 166.896C64.5153 166.896 65.2833 166.507 65.7633 165.728L66.9473 166.4C66.1686 167.605 64.9953 168.208 63.4273 168.208C62.1579 168.208 61.1233 167.813 60.3233 167.024C59.5339 166.224 59.1393 165.216 59.1393 164C59.1393 162.795 59.5286 161.792 60.3073 160.992C61.0859 160.192 62.0939 159.792 63.3313 159.792C64.5046 159.792 65.4593 160.208 66.1953 161.04C66.9419 161.861 67.3153 162.853 67.3153 164.016C67.3153 164.219 67.2993 164.427 67.2673 164.64H60.5633ZM63.3313 161.104C62.5846 161.104 61.9659 161.317 61.4753 161.744C60.9846 162.16 60.6806 162.72 60.5633 163.424H65.9073C65.7899 162.667 65.4913 162.091 65.0113 161.696C64.5313 161.301 63.9713 161.104 63.3313 161.104ZM69.8029 162.16C69.8029 162.469 69.9575 162.72 70.2669 162.912C70.5762 163.093 70.9495 163.243 71.3869 163.36C71.8242 163.467 72.2615 163.595 72.6989 163.744C73.1362 163.883 73.5095 164.128 73.8189 164.48C74.1282 164.821 74.2829 165.264 74.2829 165.808C74.2829 166.533 74.0002 167.115 73.4349 167.552C72.8802 167.989 72.1655 168.208 71.2909 168.208C70.5122 168.208 69.8455 168.037 69.2909 167.696C68.7362 167.355 68.3415 166.901 68.1069 166.336L69.3069 165.648C69.4349 166.032 69.6749 166.336 70.0269 166.56C70.3789 166.784 70.8002 166.896 71.2909 166.896C71.7495 166.896 72.1282 166.811 72.4269 166.64C72.7255 166.459 72.8749 166.181 72.8749 165.808C72.8749 165.499 72.7202 165.253 72.4109 165.072C72.1015 164.88 71.7282 164.731 71.2909 164.624C70.8535 164.507 70.4162 164.373 69.9789 164.224C69.5415 164.075 69.1682 163.829 68.8589 163.488C68.5495 163.147 68.3949 162.709 68.3949 162.176C68.3949 161.483 68.6615 160.912 69.1949 160.464C69.7389 160.016 70.4162 159.792 71.2269 159.792C71.8775 159.792 72.4535 159.941 72.9549 160.24C73.4669 160.528 73.8509 160.933 74.1069 161.456L72.9389 162.112C72.6509 161.429 72.0802 161.088 71.2269 161.088C70.8322 161.088 70.4962 161.184 70.2189 161.376C69.9415 161.557 69.8029 161.819 69.8029 162.16ZM76.631 162.16C76.631 162.469 76.7857 162.72 77.095 162.912C77.4043 163.093 77.7777 163.243 78.215 163.36C78.6523 163.467 79.0897 163.595 79.527 163.744C79.9643 163.883 80.3377 164.128 80.647 164.48C80.9563 164.821 81.111 165.264 81.111 165.808C81.111 166.533 80.8283 167.115 80.263 167.552C79.7083 167.989 78.9937 168.208 78.119 168.208C77.3403 168.208 76.6737 168.037 76.119 167.696C75.5643 167.355 75.1697 166.901 74.935 166.336L76.135 165.648C76.263 166.032 76.503 166.336 76.855 166.56C77.207 166.784 77.6283 166.896 78.119 166.896C78.5777 166.896 78.9563 166.811 79.255 166.64C79.5537 166.459 79.703 166.181 79.703 165.808C79.703 165.499 79.5483 165.253 79.239 165.072C78.9297 164.88 78.5563 164.731 78.119 164.624C77.6817 164.507 77.2443 164.373 76.807 164.224C76.3697 164.075 75.9963 163.829 75.687 163.488C75.3777 163.147 75.223 162.709 75.223 162.176C75.223 161.483 75.4897 160.912 76.023 160.464C76.567 160.016 77.2443 159.792 78.055 159.792C78.7057 159.792 79.2817 159.941 79.783 160.24C80.295 160.528 80.679 160.933 80.935 161.456L79.767 162.112C79.479 161.429 78.9083 161.088 78.055 161.088C77.6603 161.088 77.3243 161.184 77.047 161.376C76.7697 161.557 76.631 161.819 76.631 162.16ZM86.6993 157.936C85.2913 157.819 84.5873 158.427 84.5873 159.76V160H86.6993V161.344H84.5873V168H83.1953V161.344H81.9153V160H83.1953V159.76C83.1953 158.683 83.4939 157.867 84.0913 157.312C84.6993 156.757 85.5686 156.517 86.6993 156.592V157.936ZM93.2791 160H94.6711V168H93.2791V166.848C92.7138 167.755 91.8498 168.208 90.6871 168.208C89.7485 168.208 88.9965 167.915 88.4311 167.328C87.8658 166.731 87.5831 165.925 87.5831 164.912V160H88.9751V164.832C88.9751 165.483 89.1511 165.989 89.5031 166.352C89.8551 166.704 90.3405 166.88 90.9591 166.88C91.6525 166.88 92.2125 166.667 92.6391 166.24C93.0658 165.803 93.2791 165.136 93.2791 164.24V160ZM96.7904 168V156.32H98.1824V168H96.7904ZM100.306 168V156.32H101.698V168H100.306ZM109.406 160H110.894L107.63 168.496C107.288 169.403 106.808 170.091 106.19 170.56C105.582 171.04 104.878 171.253 104.078 171.2V169.904C105.059 169.979 105.779 169.435 106.238 168.272L106.382 167.968L102.894 160H104.382L107.102 166.272L109.406 160ZM120.472 159.792C121.592 159.792 122.547 160.203 123.336 161.024C124.125 161.835 124.52 162.827 124.52 164C124.52 165.173 124.125 166.171 123.336 166.992C122.547 167.803 121.592 168.208 120.472 168.208C119.149 168.208 118.141 167.68 117.448 166.624V171.2H116.056V160H117.448V161.376C118.141 160.32 119.149 159.792 120.472 159.792ZM120.296 166.864C121.096 166.864 121.768 166.592 122.312 166.048C122.856 165.493 123.128 164.811 123.128 164C123.128 163.189 122.856 162.512 122.312 161.968C121.768 161.413 121.096 161.136 120.296 161.136C119.485 161.136 118.808 161.413 118.264 161.968C117.72 162.512 117.448 163.189 117.448 164C117.448 164.811 117.72 165.493 118.264 166.048C118.808 166.592 119.485 166.864 120.296 166.864ZM132.933 166.992C132.112 167.803 131.114 168.208 129.941 168.208C128.768 168.208 127.77 167.803 126.949 166.992C126.138 166.181 125.733 165.184 125.733 164C125.733 162.816 126.138 161.819 126.949 161.008C127.77 160.197 128.768 159.792 129.941 159.792C131.114 159.792 132.112 160.197 132.933 161.008C133.754 161.819 134.165 162.816 134.165 164C134.165 165.184 133.754 166.181 132.933 166.992ZM129.941 166.848C130.741 166.848 131.413 166.576 131.957 166.032C132.501 165.488 132.773 164.811 132.773 164C132.773 163.189 132.501 162.512 131.957 161.968C131.413 161.424 130.741 161.152 129.941 161.152C129.152 161.152 128.485 161.424 127.941 161.968C127.397 162.512 127.125 163.189 127.125 164C127.125 164.811 127.397 165.488 127.941 166.032C128.485 166.576 129.152 166.848 129.941 166.848ZM136.834 162.16C136.834 162.469 136.989 162.72 137.298 162.912C137.607 163.093 137.981 163.243 138.418 163.36C138.855 163.467 139.293 163.595 139.73 163.744C140.167 163.883 140.541 164.128 140.85 164.48C141.159 164.821 141.314 165.264 141.314 165.808C141.314 166.533 141.031 167.115 140.466 167.552C139.911 167.989 139.197 168.208 138.322 168.208C137.543 168.208 136.877 168.037 136.322 167.696C135.767 167.355 135.373 166.901 135.138 166.336L136.338 165.648C136.466 166.032 136.706 166.336 137.058 166.56C137.41 166.784 137.831 166.896 138.322 166.896C138.781 166.896 139.159 166.811 139.458 166.64C139.757 166.459 139.906 166.181 139.906 165.808C139.906 165.499 139.751 165.253 139.442 165.072C139.133 164.88 138.759 164.731 138.322 164.624C137.885 164.507 137.447 164.373 137.01 164.224C136.573 164.075 136.199 163.829 135.89 163.488C135.581 163.147 135.426 162.709 135.426 162.176C135.426 161.483 135.693 160.912 136.226 160.464C136.77 160.016 137.447 159.792 138.258 159.792C138.909 159.792 139.485 159.941 139.986 160.24C140.498 160.528 140.882 160.933 141.138 161.456L139.97 162.112C139.682 161.429 139.111 161.088 138.258 161.088C137.863 161.088 137.527 161.184 137.25 161.376C136.973 161.557 136.834 161.819 136.834 162.16ZM147.002 161.344H144.874V165.68C144.874 166.075 144.948 166.357 145.098 166.528C145.258 166.688 145.498 166.773 145.818 166.784C146.138 166.784 146.532 166.773 147.002 166.752V168C145.786 168.16 144.895 168.064 144.33 167.712C143.764 167.349 143.482 166.672 143.482 165.68V161.344H141.898V160H143.482V158.176L144.874 157.76V160H147.002V161.344ZM149.22 164.64C149.358 165.355 149.684 165.909 150.196 166.304C150.718 166.699 151.358 166.896 152.116 166.896C153.172 166.896 153.94 166.507 154.42 165.728L155.604 166.4C154.825 167.605 153.652 168.208 152.084 168.208C150.814 168.208 149.78 167.813 148.98 167.024C148.19 166.224 147.796 165.216 147.796 164C147.796 162.795 148.185 161.792 148.964 160.992C149.742 160.192 150.75 159.792 151.988 159.792C153.161 159.792 154.116 160.208 154.852 161.04C155.598 161.861 155.972 162.853 155.972 164.016C155.972 164.219 155.956 164.427 155.924 164.64H149.22ZM151.988 161.104C151.241 161.104 150.622 161.317 150.132 161.744C149.641 162.16 149.337 162.72 149.22 163.424H154.564C154.446 162.667 154.148 162.091 153.668 161.696C153.188 161.301 152.628 161.104 151.988 161.104ZM164.18 156.8H165.572V168H164.18V166.624C163.487 167.68 162.479 168.208 161.156 168.208C160.036 168.208 159.081 167.803 158.292 166.992C157.503 166.171 157.108 165.173 157.108 164C157.108 162.827 157.503 161.835 158.292 161.024C159.081 160.203 160.036 159.792 161.156 159.792C162.479 159.792 163.487 160.32 164.18 161.376V156.8ZM161.332 166.864C162.143 166.864 162.82 166.592 163.364 166.048C163.908 165.493 164.18 164.811 164.18 164C164.18 163.189 163.908 162.512 163.364 161.968C162.82 161.413 162.143 161.136 161.332 161.136C160.532 161.136 159.86 161.413 159.316 161.968C158.772 162.512 158.5 163.189 158.5 164C158.5 164.811 158.772 165.493 159.316 166.048C159.86 166.592 160.532 166.864 161.332 166.864Z" fill="#242A3D"/>
<path opacity="0.1" d="M27 40C27 21.1438 27 11.7157 32.8579 5.85786C38.7157 0 48.1438 0 67 0H123C141.856 0 151.284 0 157.142 5.85786C163 11.7157 163 21.1438 163 40V96C163 114.856 163 124.284 157.142 130.142C151.284 136 141.856 136 123 136H67C48.1438 136 38.7157 136 32.8579 130.142C27 124.284 27 114.856 27 96V40Z" fill="#2ED9FF"/>
<path d="M93.3985 60.5594C89.6122 67.8157 88.6569 71.6722 77.1717 78.8724C77.0825 78.9306 77.0156 79.0172 76.982 79.1183C75.1471 84.8068 72.041 90.0028 67.8993 94.3123C67.8436 94.3697 67.8043 94.4411 67.7858 94.519C67.7672 94.5969 67.7701 94.6784 67.794 94.7548C69.0794 99.0328 70.4708 106.746 66.5998 113.068C60.9099 122.376 56.6957 116.756 57.5733 114.648C58.3249 112.843 64.7454 108.965 63.2632 99.2787C63.2507 99.2012 63.2185 99.1282 63.1697 99.0667C63.1208 99.0053 63.057 98.9574 62.9843 98.9278C62.9116 98.8982 62.8325 98.8877 62.7546 98.8975C62.6768 98.9073 62.6027 98.9369 62.5396 98.9836C57.8858 102.361 52.5445 104.671 46.896 105.749C46.8333 105.759 46.7735 105.782 46.7205 105.818C46.6676 105.853 46.6227 105.899 46.5888 105.952C46.5549 106.006 46.5329 106.067 46.524 106.13C46.5152 106.193 46.5199 106.257 46.5377 106.318C47.9778 111.474 48.6592 119.531 42.6461 126.942C39.436 130.805 35.179 125.157 39.436 121.308C42.0771 118.927 41.8734 112.078 40.6371 106.803C40.6135 106.7 40.555 106.609 40.4717 106.545C40.3884 106.481 40.2855 106.448 40.1805 106.451C39.9347 106.458 39.6816 106.458 39.436 106.458C30.7473 106.471 22.3001 103.6 15.419 98.2952C15.3561 98.246 15.2814 98.2141 15.2024 98.2025C15.1233 98.1909 15.0427 98.2001 14.9682 98.2291C14.8938 98.2582 14.8283 98.3061 14.778 98.3682C14.7277 98.4303 14.6944 98.5044 14.6815 98.5832C13.0306 109.485 19.5848 113.257 20.5188 116.053C21.5585 119.179 19.1701 121.961 16.2268 121.174C16.163 121.155 16.1034 121.124 16.0513 121.083C6.45573 113.876 7.29162 98.7729 8.34529 91.5025C8.35493 91.443 8.35177 91.3822 8.33601 91.3241C8.32025 91.2659 8.29226 91.2118 8.25392 91.1654C2.88792 84.2601 -0.0171514 75.76 7.61823e-05 67.015C7.61823e-05 50.9779 9.57455 37.1746 23.3216 31.0141C23.3226 31.0142 23.3235 31.014 23.3243 31.0137C23.3252 31.0133 23.326 31.0128 23.3266 31.0122C23.3273 31.0115 23.3278 31.0108 23.3282 31.0099C23.3285 31.009 23.3287 31.0081 23.3287 31.0072C25.443 28.3304 28.0211 24.5446 28.4146 21.8894C28.4275 21.7994 28.467 21.7154 28.528 21.648C28.589 21.5806 28.6687 21.5329 28.7569 21.511C28.8451 21.4891 28.9378 21.494 29.0232 21.5251C29.1086 21.5562 29.1828 21.6121 29.2363 21.6856C30.2479 23.0483 31.8144 25.6474 31.4702 28.387C31.4561 28.4783 31.4492 28.5695 31.4351 28.6609C31.407 28.8155 31.3719 28.963 31.3368 29.1175C31.3016 29.237 31.2735 29.3564 31.2314 29.4758C31.7226 29.0659 32.1914 28.6297 32.6356 28.1692C33.6681 27.1086 34.9747 25.514 35.5367 23.807C35.5633 23.716 35.6175 23.6354 35.6917 23.5764C35.766 23.5173 35.8568 23.4828 35.9515 23.4774C36.0462 23.4721 36.1402 23.4962 36.2207 23.5466C36.3011 23.5969 36.364 23.6709 36.4006 23.7584C36.7656 24.6575 37.1944 25.9149 37.3419 27.2003C37.3546 27.3156 37.4099 27.422 37.4969 27.4987C37.584 27.5753 37.6965 27.6167 37.8125 27.6148C38.3534 27.5937 38.8943 27.5797 39.4352 27.5797C61.2182 27.5797 78.878 45.2394 78.878 67.0155C78.878 67.5143 78.871 68.0059 78.8498 68.4976C78.8467 68.5726 78.862 68.6473 78.8942 68.7152C78.9265 68.783 78.9748 68.842 79.035 68.887C79.0952 68.9319 79.1655 68.9615 79.2397 68.9733C79.3139 68.985 79.3898 68.9784 79.461 68.9542C81.8072 68.1323 84.7645 66.1514 86.5487 61.4379C89.8854 52.6572 90.2367 50.1987 89.183 43.3497C88.1293 36.5007 93.2225 36.8524 94.2757 39.135C95.3289 41.4176 97.6128 52.4812 93.3985 60.5594Z" fill="#2142B2"/>
<path d="M24.0296 70.4745C23.8952 70.4744 23.7647 70.4298 23.6584 70.3477C23.5521 70.2656 23.4759 70.1506 23.4418 70.0207C23.1769 68.8638 23.12 67.669 23.2737 66.4922C23.6197 63.9344 25.0116 62.0544 27.2991 61.0552C28.794 60.4022 30.2071 60.3645 31.499 60.9436C34.1469 62.1304 35.2742 65.4955 35.321 65.6381C35.3662 65.79 35.3504 65.9536 35.2769 66.094C35.2034 66.2345 35.0779 66.3407 34.9273 66.39C34.7766 66.4393 34.6127 66.4279 34.4703 66.3582C34.3279 66.2884 34.2184 66.1659 34.1651 66.0166C34.1555 65.9874 33.1528 63.0146 30.9977 62.052C30.0329 61.6212 28.9525 61.6609 27.7865 62.1702C25.8937 62.9976 24.7828 64.4941 24.485 66.619C24.3489 67.6504 24.3945 68.6976 24.6196 69.7132C24.6601 69.8694 24.6369 70.0353 24.5553 70.1744C24.4736 70.3136 24.3401 70.4146 24.184 70.4554C24.1335 70.4683 24.0816 70.4747 24.0296 70.4745Z" fill="white"/>
<path d="M42.3693 64.9033C42.2418 64.9032 42.1176 64.8631 42.0142 64.7886C41.9107 64.7141 41.8333 64.609 41.7928 64.4881C41.4533 63.3558 41.319 62.1719 41.3962 60.9922C41.5756 58.428 42.843 56.4692 45.0612 55.3277C46.5135 54.5806 47.9231 54.4517 49.2519 54.947C51.9652 55.9569 53.3063 59.2202 53.362 59.3586C53.4205 59.5079 53.4177 59.6742 53.3542 59.8214C53.2907 59.9686 53.1716 60.0848 53.0229 60.1448C52.8742 60.2047 52.7078 60.2035 52.56 60.1414C52.4122 60.0793 52.2948 59.9614 52.2335 59.8133C52.2213 59.7849 51.0315 56.9043 48.8229 56.0856C47.8296 55.7172 46.7516 55.8262 45.6181 56.4097C43.7831 57.3539 42.772 58.9118 42.6128 61.0407C42.544 62.0732 42.6572 63.1098 42.9473 64.1031C42.9774 64.1946 42.9855 64.2919 42.9708 64.3871C42.9561 64.4823 42.919 64.5726 42.8626 64.6507C42.8063 64.7288 42.7322 64.7924 42.6465 64.8363C42.5608 64.8802 42.4659 64.9031 42.3696 64.9033H42.3693Z" fill="white"/>
<path d="M40.8219 77.6309C36.6813 77.6309 33.5241 74.875 33.3661 74.7351C33.3063 74.682 33.2576 74.6177 33.2227 74.5459C33.1878 74.474 33.1674 74.396 33.1627 74.3162C33.158 74.2364 33.169 74.1565 33.1951 74.081C33.2213 74.0055 33.262 73.9359 33.3151 73.8762C33.3681 73.8165 33.4324 73.7677 33.5043 73.7329C33.5762 73.698 33.6542 73.6776 33.734 73.6728C33.8137 73.6681 33.8936 73.6791 33.9691 73.7053C34.0446 73.7314 34.1142 73.7722 34.174 73.8252C34.2155 73.8617 38.3847 77.4855 43.0788 76.0862C47.751 74.6941 49.0323 68.7616 49.0448 68.702C49.0789 68.5455 49.1733 68.4088 49.3076 68.3215C49.4418 68.2342 49.605 68.2034 49.7619 68.2356C49.9187 68.2679 50.0565 68.3607 50.1454 68.494C50.2342 68.6272 50.2669 68.7901 50.2365 68.9473C49.9472 70.1761 49.4941 71.3604 48.8894 72.4686C47.5537 74.9311 45.6651 76.5853 43.4264 77.2523C42.5812 77.5043 41.7038 77.6318 40.8219 77.6309Z" fill="white"/>
<path d="M171.961 50.5526C171.909 51.8735 171.775 53.1899 171.559 54.4942C168.626 72.4355 151.713 84.5968 133.771 81.6635C115.837 78.7318 103.669 61.8168 106.602 43.8753C106.789 42.7316 107.036 41.6122 107.328 40.5205C94.0219 31.484 94.7991 14.0585 97.3498 12.1266C99.926 10.1704 102.739 11.8188 102.445 17.2301C102.142 25.0885 106.981 31.5874 109.664 34.4181C115.946 21.8928 129.832 14.3258 144.39 16.7057C158.519 19.0152 169.058 29.9984 171.472 43.3187C174.105 42.3613 178.756 39.5983 182.524 31.7441C183.051 30.1788 183.196 29.0282 183.224 28.3351C183.243 27.6877 183.496 27.0691 183.936 26.5937C184.76 25.7319 186.219 24.8173 188.104 26.2217C188.532 26.5421 188.878 26.9606 189.111 27.4422C189.344 27.9237 189.459 28.4542 189.445 28.9891C189.327 33.2339 185.93 43.5616 171.961 50.5526Z" fill="#2ED9FF"/>
<path d="M152.389 56.3714C151.559 61.453 144.57 64.5385 136.785 63.266C128.992 61.9922 123.35 56.8417 124.181 51.7603C124.339 50.814 124.709 49.9157 125.262 49.1322C125.414 48.9201 125.641 48.7741 125.897 48.7243C126.152 48.6745 126.417 48.7247 126.637 48.8645C129.427 50.6109 133.842 52.1509 138.935 52.9836C143.623 53.7501 147.962 53.7616 151.119 53.1626C151.376 53.1133 151.642 53.1648 151.862 53.3064C152.083 53.448 152.24 53.6689 152.301 53.9233C152.492 54.7256 152.521 55.5576 152.389 56.3714Z" fill="white"/>
<path d="M137.618 46.289C137.529 46.2891 137.442 46.27 137.362 46.233C137.282 46.196 137.211 46.1421 137.153 46.0748C137.096 46.0076 137.054 45.9288 137.031 45.8437C137.007 45.7587 137.002 45.6695 137.016 45.5824C137.221 44.3333 136.92 43.0541 136.181 42.0265C135.442 40.9988 134.325 40.3067 133.076 40.1026C131.827 39.8984 130.548 40.1988 129.52 40.9377C128.493 41.6766 127.801 42.7935 127.596 44.0427C127.57 44.2019 127.482 44.3443 127.351 44.4384C127.22 44.5326 127.057 44.5709 126.898 44.5449C126.739 44.5188 126.596 44.4306 126.502 44.2996C126.408 44.1686 126.37 44.0055 126.396 43.8463C126.652 42.2787 127.52 40.877 128.81 39.9497C130.1 39.0225 131.705 38.6455 133.273 38.9017C134.84 39.158 136.242 40.0265 137.169 41.3161C138.096 42.6058 138.473 44.211 138.217 45.7787C138.194 45.921 138.121 46.0504 138.011 46.1439C137.901 46.2374 137.762 46.2888 137.618 46.289Z" fill="white"/>
<path d="M152.212 48.6748C152.124 48.6747 152.037 48.6555 151.957 48.6185C151.876 48.5814 151.805 48.5274 151.748 48.4602C151.691 48.393 151.649 48.3143 151.625 48.2293C151.602 48.1443 151.597 48.0552 151.611 47.9682C151.81 46.7213 151.507 45.4463 150.768 44.4224C150.029 43.3986 148.914 42.7094 147.668 42.5057C146.422 42.302 145.146 42.6004 144.119 43.3357C143.093 44.0709 142.399 45.183 142.191 46.4284C142.178 46.5075 142.15 46.5832 142.108 46.6514C142.066 46.7196 142.011 46.7787 141.946 46.8256C141.881 46.8724 141.808 46.906 141.73 46.9244C141.652 46.9427 141.571 46.9455 141.492 46.9326C141.413 46.9197 141.337 46.8913 141.269 46.8491C141.201 46.8069 141.142 46.7517 141.096 46.6866C141.049 46.6215 141.016 46.5479 140.998 46.4699C140.98 46.3919 140.977 46.3111 140.99 46.2322C141.251 44.6685 142.121 43.272 143.409 42.3486C144.698 41.4252 146.3 41.0503 147.864 41.306C149.429 41.5617 150.828 42.4273 151.755 43.7129C152.683 44.9985 153.062 46.5993 152.812 48.1645C152.788 48.3069 152.715 48.4363 152.605 48.5298C152.496 48.6233 152.356 48.6747 152.212 48.6748Z" fill="white"/>
</svg>
