<svg width="24" height="24" viewBox="0 0 24 24" fill="none" xmlns="http://www.w3.org/2000/svg">
<path fill-rule="evenodd" clip-rule="evenodd" d="M22 16.102V9.74284C21.5823 10.0877 21.1128 10.3721 20.605 10.5826V13.19C20.159 12.812 18.812 11.871 18.624 11.759C17.224 10.919 15.544 11.299 14.454 12.719C14.4419 12.735 14.4055 12.7865 14.3501 12.865L14.35 12.8651C13.9722 13.4004 12.7106 15.188 12.224 15.488C12.095 15.568 11.959 15.611 11.814 15.631C11.464 15.661 11.127 15.481 10.554 15.098L10.4654 15.0415C10.1597 14.8461 9.82761 14.6339 9.454 14.479C7.749 13.766 6.45 14.944 5.758 15.734C5.75205 15.7393 4.90398 16.7728 4.32055 17.4837L4.31922 17.4854L4.31889 17.4858L4.317 17.4881L4.31668 17.4885C4.01922 17.851 3.79147 18.1285 3.781 18.141C3.538 17.55 3.396 16.867 3.396 16.102V7.888C3.396 5.162 5.061 3.395 7.638 3.395H13.4175C13.628 2.88715 13.9124 2.41768 14.2573 2H7.638C4.271 2 2 4.362 2 7.888V16.102C2 17.674 2.447 19.013 3.238 20.009C3.24153 20.0125 3.24368 20.0162 3.24553 20.0194C3.24839 20.0243 3.25053 20.028 3.256 20.028C4.043 21.013 5.166 21.666 6.519 21.899C6.531 21.901 6.543 21.903 6.556 21.905C6.903 21.962 7.262 22 7.638 22H16.354C16.4661 22 16.5721 21.987 16.6778 21.9739L16.6779 21.9739C16.7429 21.9659 16.8078 21.9579 16.874 21.953C16.9356 21.9479 16.9978 21.9439 17.0601 21.94C17.2039 21.9308 17.3476 21.9217 17.483 21.898C17.7167 21.858 17.9331 21.7907 18.1501 21.7232L18.1501 21.7231L18.215 21.703C18.2582 21.6893 18.3026 21.6778 18.3469 21.6664L18.347 21.6664L18.347 21.6664C18.4094 21.6503 18.4716 21.6342 18.53 21.612C18.773 21.52 18.996 21.401 19.217 21.279C19.2484 21.2617 19.2807 21.2457 19.3131 21.2296L19.3132 21.2296L19.3132 21.2296C19.3633 21.2047 19.4137 21.1797 19.461 21.15C19.678 21.014 19.875 20.855 20.068 20.689C20.0926 20.6678 20.118 20.6474 20.1433 20.627C20.1839 20.5944 20.2245 20.5617 20.262 20.526C20.45 20.347 20.616 20.15 20.775 19.944C20.7945 19.9181 20.8145 19.8931 20.8344 19.8681C20.8646 19.8302 20.8947 19.7924 20.923 19.752C21.076 19.534 21.208 19.299 21.33 19.054C21.3436 19.0256 21.3575 18.9975 21.3714 18.9695C21.3923 18.9273 21.4132 18.8852 21.433 18.842C21.546 18.585 21.64 18.316 21.72 18.034L21.7243 18.0186L21.7243 18.0184C21.7439 17.9477 21.7632 17.8777 21.78 17.805C21.851 17.514 21.902 17.214 21.935 16.9C21.937 16.881 21.9408 16.8627 21.9445 16.8445C21.9482 16.8263 21.952 16.808 21.954 16.789C21.958 16.7404 21.9594 16.6919 21.9608 16.6433C21.9618 16.6069 21.9629 16.5704 21.965 16.534C21.9683 16.4738 21.9748 16.4154 21.9814 16.357L21.9814 16.357L21.9814 16.3569C21.9907 16.2738 22 16.1907 22 16.102ZM11.0006 8.51456C11.0006 9.86951 9.86688 10.9996 8.50544 10.9996C7.30874 10.9996 6.28839 10.1253 6.05971 8.99323C6.02192 8.82338 6.0006 8.6487 6.0006 8.46824C6.0006 7.10363 7.10913 5.9996 8.47928 5.9996C9.17696 5.9996 9.80874 6.29298 10.2613 6.76104C10.7157 7.21269 11.0006 7.83515 11.0006 8.51456ZM19.3984 4.58747H20.6015C21.0967 4.58747 21.5005 4.99691 21.5005 5.49908C21.5005 6.00125 21.0967 6.4107 20.6015 6.4107H19.3984V7.58799C19.3984 8.09016 18.9957 8.4996 18.4995 8.4996C18.0043 8.4996 17.6005 8.09016 17.6005 7.58799V6.4107H16.3995C15.9032 6.4107 15.5005 6.00125 15.5005 5.49908C15.5005 4.99691 15.9032 4.58747 16.3995 4.58747H17.6005V3.41122C17.6005 2.90905 18.0043 2.4996 18.4995 2.4996C18.9957 2.4996 19.3984 2.90905 19.3984 3.41122V4.58747Z" fill="#2142B2"/>
</svg>
