<svg width="96" height="96" viewBox="0 0 96 96" fill="none" xmlns="http://www.w3.org/2000/svg">
<path opacity="0.1" d="M0 40C0 21.1438 0 11.7157 5.85786 5.85786C11.7157 0 21.1438 0 40 0H56C74.8562 0 84.2843 0 90.1421 5.85786C96 11.7157 96 21.1438 96 40V56C96 74.8562 96 84.2843 90.1421 90.1421C84.2843 96 74.8562 96 56 96H40C21.1438 96 11.7157 96 5.85786 90.1421C0 84.2843 0 74.8562 0 56V40Z" fill="#2ED9FF"/>
<path d="M65.8723 64.9476L51.7234 50.9666L48.9217 53.8019L63.0706 67.7829L65.8723 64.9476Z" fill="#2142B2"/>
<path d="M71.2771 68.7042L60.2692 57.8269C60.2079 57.7664 60.1091 57.767 60.0485 57.8283L55.8821 62.0447C55.8216 62.106 55.8222 62.2048 55.8835 62.2653L66.8914 73.1426C66.9526 73.2032 67.0514 73.2026 67.112 73.1413L71.2784 68.9248C71.339 68.8635 71.3384 68.7648 71.2771 68.7042Z" fill="#2ED9FF"/>
<path d="M39.1831 57.9978C48.9171 57.9978 56.8081 50.1068 56.8081 40.3728C56.8081 30.6388 48.9171 22.7478 39.1831 22.7478C29.4491 22.7478 21.5581 30.6388 21.5581 40.3728C21.5581 50.1068 29.4491 57.9978 39.1831 57.9978Z" fill="#2142B2"/>
<path d="M39.183 55.1221C47.3287 55.1221 53.9322 48.5187 53.9322 40.3729C53.9322 32.2272 47.3287 25.6238 39.183 25.6238C31.0373 25.6238 24.4338 32.2272 24.4338 40.3729C24.4338 48.5187 31.0373 55.1221 39.183 55.1221Z" fill="white"/>
<path d="M68.98 24.4397C64.8458 23.0997 60.378 25.3661 59.0325 29.5173C57.6925 33.6515 59.9589 38.1194 64.1101 39.4648C68.2614 40.8103 72.7176 38.5216 74.0579 34.3872C75.3982 30.2528 73.1145 25.7797 68.98 24.4397ZM67.7326 28.2885C68.1953 28.4385 68.6031 28.7225 68.9042 29.1046C69.2053 29.4867 69.3861 29.9496 69.4238 30.4346C69.4614 30.9196 69.3541 31.4048 69.1156 31.8288C68.8771 32.2527 68.518 32.5963 68.0839 32.8159C67.6498 33.0355 67.1603 33.1212 66.6774 33.0622C66.1946 33.0032 65.7401 32.8021 65.3717 32.4844C65.0033 32.1668 64.7375 31.7469 64.6081 31.2779C64.4787 30.809 64.4914 30.3122 64.6447 29.8506C65.0587 28.5733 66.4551 27.8745 67.7326 28.2885ZM64.6113 37.9186C63.2378 37.4757 62.061 36.569 61.2824 35.3539C62.7393 34.5261 64.2627 34.2955 65.6408 34.7422C67.019 35.1889 68.1397 36.2578 68.8118 37.7943C67.4684 38.3217 65.9835 38.3656 64.6113 37.9186Z" fill="#2ED9FF"/>
<path d="M34.5698 62.1131C33.8517 62.4796 33.2584 63.0509 32.865 63.7546C32.4716 64.4583 32.2956 65.2629 32.3595 66.0666C32.4233 66.8703 32.724 67.637 33.2236 68.2698C33.7232 68.9026 34.3993 69.3731 35.1662 69.6216C35.9332 69.8702 36.7566 69.8858 37.5324 69.6664C38.3082 69.447 39.0015 69.0024 39.5247 68.389C40.0479 67.7755 40.3774 67.0207 40.4715 66.22C40.5657 65.4193 40.4203 64.6086 40.0538 63.8905C39.5614 62.9285 38.7075 62.201 37.6794 61.8678C36.6513 61.5345 35.5329 61.6228 34.5698 62.1131ZM35.5193 63.9731C35.7429 63.859 35.9954 63.8138 36.2448 63.8433C36.4942 63.8729 36.7292 63.9758 36.9199 64.1391C37.1107 64.3024 37.2487 64.5187 37.3163 64.7605C37.384 65.0023 37.3784 65.2588 37.3001 65.4974C37.2218 65.736 37.0743 65.946 36.8765 66.1006C36.6787 66.2553 36.4394 66.3478 36.189 66.3663C35.9386 66.3848 35.6883 66.3285 35.4699 66.2046C35.2515 66.0806 35.0749 65.8946 34.9624 65.6701C34.8133 65.3708 34.7881 65.0249 34.8923 64.7072C34.9966 64.3895 35.2218 64.1257 35.5193 63.973V63.9731ZM37.8949 68.6274C37.2319 68.967 36.4715 69.0656 35.7438 68.9063C35.9734 68.0723 36.4453 67.4322 37.1115 67.0922C37.7777 66.7522 38.5767 66.7334 39.3828 67.0488C39.0849 67.7316 38.5589 68.2896 37.8949 68.6272V68.6274Z" fill="#2ED9FF"/>
</svg>
