<svg width="697" height="434" viewBox="0 0 697 434" fill="none" xmlns="http://www.w3.org/2000/svg">
<mask id="mask0" mask-type="alpha" maskUnits="userSpaceOnUse" x="20" y="20" width="657" height="394">
<rect opacity="0.8" x="20.5" y="20.5" width="656" height="393" rx="20.5" fill="white" stroke="#DADADF"/>
</mask>
<g mask="url(#mask0)">
<g opacity="0.8" filter="url(#filter0_d)">
<rect x="21" y="21" width="655" height="392" rx="20" fill="white"/>
<rect x="20.5" y="20.5" width="656" height="393" rx="20.5" stroke="#DADADF"/>
</g>
<path d="M283.374 21C285.288 21 287.011 21.6698 288.542 23.0094C289.881 24.5404 290.551 26.2628 290.551 28.1766L290.551 163.098C290.551 165.203 289.881 166.925 288.542 168.265C287.011 169.605 285.288 170.274 283.374 170.274L250.075 170.274C247.97 170.274 246.247 169.605 244.908 168.265C243.568 166.925 242.898 165.203 242.898 163.098L242.898 153.337C238.305 158.887 232.372 163.576 225.1 167.404C217.828 171.231 209.598 173.145 200.412 173.145C179.361 173.145 164.912 164.916 157.065 148.457C152.472 155.73 146.061 161.662 137.832 166.255C129.603 170.848 120.799 173.145 111.422 173.145C95.7288 173.145 83.0022 167.786 73.242 157.069C63.2903 146.544 58.3145 130.755 58.3145 109.703L58.3145 28.1766C58.3145 26.2629 58.9843 24.5405 60.324 23.0094C61.6636 21.6698 63.386 21 65.4912 21L100.8 21C102.905 21 104.724 21.6698 106.255 23.0094C107.594 24.3491 108.264 26.0715 108.264 28.1766L108.264 107.694C108.264 116.497 110.178 122.908 114.005 126.927C117.642 131.138 122.617 133.243 128.933 133.243C134.865 133.243 139.746 131.138 143.573 126.927C147.209 122.908 149.027 116.497 149.027 107.694L149.027 28.1766C149.027 26.2629 149.697 24.5405 151.037 23.0094C152.377 21.6698 154.099 21 156.204 21L191.513 21C193.618 21 195.436 21.6698 196.967 23.0094C198.307 24.3491 198.977 26.0715 198.977 28.1766L198.977 107.694C198.977 116.497 200.891 122.908 204.718 126.927C208.546 131.138 213.522 133.243 219.646 133.243C225.578 133.243 230.459 131.138 234.286 126.927C238.114 122.908 240.027 116.593 240.027 107.981L240.027 28.1766C240.027 26.2628 240.697 24.5404 242.037 23.0094C243.376 21.6698 245.099 21 247.204 21L283.374 21Z" fill="#2142B2"/>
<path d="M128.703 77.829C128.703 53.5068 148.42 33.7898 172.742 33.7898C197.064 33.7898 216.781 53.5068 216.781 77.829C216.781 102.151 197.064 121.868 172.742 121.868C148.42 121.868 128.703 102.151 128.703 77.829Z" fill="#2ED9FF"/>
<path fill-rule="evenodd" clip-rule="evenodd" d="M172.742 43.3586C153.704 43.3586 138.272 58.7916 138.272 77.829C138.272 96.8665 153.704 112.299 172.742 112.299C191.779 112.299 207.212 96.8665 207.212 77.829C207.212 58.7916 191.779 43.3586 172.742 43.3586ZM172.742 33.7898C148.42 33.7898 128.703 53.5068 128.703 77.829C128.703 102.151 148.42 121.868 172.742 121.868C197.064 121.868 216.781 102.151 216.781 77.829C216.781 53.5068 197.064 33.7898 172.742 33.7898Z" fill="white"/>
<rect x="289.07" y="205" width="48.6395" height="24.2292" rx="2" transform="rotate(180 289.07 205)" fill="#2ED9FF"/>
<path d="M462.182 258.637C497.114 252.979 532.694 251.52 567.278 244.041C601.861 236.562 636.304 222.207 659.552 195.631C666.983 187.143 673.381 176.844 673.479 165.563C673.605 153.217 666.205 142.016 657.936 132.787C635.656 108.001 605.559 91.7494 575.632 77.0804C534.841 57.1293 501.11 32.9305 457.412 54.9442C416.132 75.744 382.783 112.146 367.955 156.137C361.768 174.522 358.664 194.371 362.704 213.351C366.743 232.33 378.813 250.232 396.562 258.14C416.853 267.201 440.261 262.178 462.182 258.637ZM495.47 76.1073C495.403 76.0682 496.046 74.9546 496.201 74.9991C496.942 75.202 497.619 75.5932 498.316 75.9507C497.893 76.606 497.606 77.0251 497.319 77.4443C496.714 77.0051 496.036 76.6139 495.47 76.1073ZM472.146 80.5933C477.018 78.7269 479.441 79.2256 482.104 81.8883C478.759 84.006 476.392 82.5498 472.146 80.5933ZM571.53 126.904C571.953 124.764 573.409 124.119 575.263 125.055C577.339 126.074 576.442 127.941 576.055 129.472C575.624 131.158 574.44 131.644 572.808 131.106C570.454 130.332 571.191 128.508 571.53 126.904ZM430.499 136.141C430.627 137.25 429.802 137.583 428.887 137.37C427.951 137.19 427.425 136.615 427.996 135.235C428.365 134.909 429.006 134.424 429.613 133.92C429.902 134.671 430.404 135.366 430.499 136.141ZM421.59 136.081C421.543 135.379 421.968 134.095 422.376 134.015C423.598 133.776 424.182 134.878 424.208 135.928C424.226 136.523 423.56 137.129 422.995 138.107C422.328 137.227 421.607 136.676 421.59 136.081ZM540.141 169.613C540.736 168.426 542.042 167.65 543.01 166.679C543.642 167.539 544.275 168.4 544.632 168.876C544.345 171.095 543.547 172.164 541.774 171.95C540.577 171.754 539.513 170.779 540.141 169.613ZM418.071 153.442C419.893 150.129 422.619 151.433 424.448 154.289C425.449 155.137 426.804 156.234 425.618 157.349C425.025 157.907 423.175 157.198 421.906 157.05C419.866 156.593 416.347 156.585 418.071 153.442ZM605.204 198.223C606.685 197.458 607.764 194.572 609.755 196.756C611.747 198.941 611.435 201.28 608.464 202.67C607.874 204.084 607.56 207.052 605.611 205.656C603.153 203.967 602.793 200.835 605.204 198.223ZM531.875 191.206C532.125 190.54 532.795 189.847 533.431 189.45C534.393 188.88 534.881 189.522 534.898 190.431C534.865 191.583 534.543 192.611 533.165 192.806C532.138 192.707 531.563 192.06 531.875 191.206ZM452.607 181.255C453.066 179.99 454.189 178.749 455.704 179.489C456.522 179.871 456.863 181.237 457.23 181.854C456.725 183.902 455.494 183.686 454.438 183.482C453.28 183.218 452.07 182.654 452.607 181.255Z" fill="#FFB82E"/>
<path d="M351.074 282.073C328.967 279.827 307.148 274.93 284.956 273.846C262.764 272.761 239.541 275.87 221.12 288.212C215.233 292.152 209.679 297.359 207.786 304.186C205.703 311.654 208.371 319.651 211.887 326.592C221.372 345.247 236.986 359.996 252.754 373.757C274.253 392.488 290.78 412.648 320.862 406.398C349.281 400.491 375.425 383.831 391.569 359.558C398.31 349.413 403.418 337.877 404.053 325.709C404.687 313.54 400.276 300.72 390.795 293.039C379.96 284.246 364.946 283.488 351.074 282.073ZM301.218 387.376C301.253 387.41 300.682 387.981 300.595 387.929C300.178 387.686 299.831 387.338 299.466 387.008C299.83 386.68 300.072 386.472 300.314 386.264C300.61 386.629 300.957 386.976 301.218 387.376ZM316.094 388.445C312.836 388.786 311.447 388.09 310.264 386.042C312.638 385.301 313.837 386.569 316.094 388.445ZM263.34 344.204C262.736 345.433 261.748 345.587 260.775 344.719C259.681 343.763 260.529 342.776 261.012 341.911C261.548 340.958 262.345 340.856 263.248 341.447C264.55 342.299 263.806 343.286 263.34 344.204ZM350.383 361.522C350.485 360.829 351.04 360.76 351.561 361.039C352.099 361.3 352.325 361.734 351.754 362.478C351.477 362.616 351.009 362.806 350.559 363.013C350.506 362.51 350.314 362.007 350.383 361.522ZM355.777 363.006C355.691 363.439 355.225 364.149 354.965 364.131C354.184 364.078 354.01 363.315 354.164 362.673C354.25 362.31 354.752 362.051 355.254 361.549C355.516 362.191 355.863 362.642 355.777 363.006ZM289.32 323.4C288.766 324.023 287.848 324.281 287.103 324.713C286.859 324.089 286.615 323.464 286.476 323.117C287.011 321.818 287.668 321.299 288.709 321.717C289.404 322.031 289.89 322.795 289.32 323.4ZM360.733 353.048C359.089 354.761 357.648 353.527 357.002 351.498C356.533 350.82 355.89 349.935 356.79 349.451C357.241 349.21 358.248 349.94 358.994 350.236C360.156 350.845 362.29 351.421 360.733 353.048ZM254.506 295.472C253.483 295.696 252.36 297.271 251.507 295.622C250.654 293.974 251.224 292.605 253.251 292.245C253.839 291.484 254.512 289.734 255.467 290.898C256.684 292.322 256.393 294.28 254.506 295.472ZM297.843 311.646C297.583 312.01 297.064 312.321 296.614 312.458C295.938 312.648 295.746 312.179 295.884 311.625C296.09 310.932 296.453 310.361 297.32 310.466C297.928 310.693 298.171 311.179 297.843 311.646ZM344.306 330.565C343.822 331.258 342.939 331.828 342.14 331.133C341.706 330.768 341.721 329.884 341.599 329.45C342.238 328.29 342.95 328.621 343.557 328.917C344.216 329.265 344.859 329.804 344.306 330.565Z" fill="#2AC798"/>
<path d="M21 61V159.098C55.7255 172.134 98.9604 162.913 125.993 137.974C148.212 117.526 164.135 90.3421 172 61H21ZM29.2731 80.8375C28.1772 81.7967 27.0598 81.4915 26.0713 80.5541C25.3837 79.813 24.9539 78.9846 25.8564 78.1998C26.9523 77.2406 28.0912 77.5022 29.0582 78.4832C29.7458 79.2026 30.1756 80.0528 29.2731 80.8375ZM50.8476 110.746C50.2029 110.005 50.5682 108.261 51.7716 108.021C54.0064 107.586 54.5006 109.918 55.8329 111.008C53.9419 112.621 52.1584 112.229 50.8476 110.746ZM59.5075 126.398C59.0132 126.682 58.476 127.205 57.9818 126.507C57.4231 125.701 57.509 124.807 58.1537 124.044C58.6909 123.412 59.4645 123.063 59.9587 123.913C60.41 124.698 60.2596 125.679 59.5075 126.398ZM63.5473 138.018C62.8382 138.868 62.1506 138.192 61.6778 137.603C61.3125 137.146 60.1736 136.579 61.5059 135.968C62.1291 135.685 62.8382 135.009 63.5688 135.838C64.0201 136.579 64.0416 137.407 63.5473 138.018ZM81.8556 88.0096C81.5762 87.9224 81.082 87.8788 80.7811 87.6172C80.3943 87.2684 80.4373 86.6798 80.9745 86.5272C81.2969 86.44 81.8341 86.6798 82.1134 86.9414C82.4143 87.203 82.844 87.7262 81.8556 88.0096ZM96.6182 119.619C95.4148 120.295 94.6198 119.88 94.8561 118.311C92.2775 118.289 91.8477 116.371 91.7403 114.409C91.6543 113.079 92.8577 113.101 93.7172 113.232C95.6082 113.515 97.4777 113.951 96.5967 116.676C97.0694 117.657 98.1439 118.747 96.6182 119.619ZM99.8415 94.1788C99.734 93.8954 99.9704 93.4594 100.056 93.1106C100.314 93.1978 100.722 93.2196 100.787 93.394C100.937 93.7428 100.894 94.157 100.959 94.8546C100.422 94.5494 99.9274 94.4404 99.8415 94.1788ZM114.131 107.237C113.745 107.15 113.272 107.171 112.971 106.953C112.713 106.757 112.649 106.299 112.348 105.558C113.229 105.798 113.788 105.885 114.239 106.147C114.368 106.212 114.174 106.844 114.131 107.237ZM118.644 85.1538C119.16 83.1265 118.708 81.4479 120.728 81.0991C121.051 81.0337 121.738 81.3607 121.76 81.5787C122.104 83.4535 120.9 84.2601 118.644 85.1538ZM122.297 78.614C121.867 79.05 121.373 79.4424 120.578 78.8538C120.75 78.5486 120.836 78.069 121.115 77.8946C121.588 77.6112 122.19 77.2624 122.684 77.8728C122.748 77.96 122.49 78.4178 122.297 78.614Z" fill="#FF3636"/>
<g filter="url(#filter1_b)">
<path d="M21 41C21 29.9543 29.9543 21 41 21H656C667.046 21 676 29.9543 676 41V393C676 404.046 667.046 413 656 413H41C29.9543 413 21 404.046 21 393V41Z" fill="white" fill-opacity="0.7"/>
</g>
<g filter="url(#filter2_d)">
<path d="M303.028 255C302.221 255 301.494 254.723 300.848 254.17C300.283 253.538 300 252.826 300 252.036V196.307C300 195.438 300.283 194.727 300.848 194.173C301.494 193.62 302.221 193.343 303.028 193.343H317.08C317.969 193.343 318.696 193.62 319.261 194.173C319.826 194.727 320.109 195.438 320.109 196.307V200.339C322.047 198.047 324.55 196.11 327.619 194.529C330.688 192.948 334.161 192.157 338.037 192.157C346.92 192.157 353.018 195.557 356.329 202.355C358.267 199.351 360.972 196.9 364.445 195.003C367.918 193.106 371.632 192.157 375.59 192.157C382.212 192.157 387.582 194.371 391.701 198.797C395.9 203.145 398 209.666 398 218.362V252.036C398 252.826 397.717 253.538 397.152 254.17C396.587 254.723 395.86 255 394.972 255H380.072C379.183 255 378.416 254.723 377.77 254.17C377.205 253.617 376.922 252.905 376.922 252.036V219.192C376.922 215.555 376.115 212.907 374.499 211.247C372.965 209.508 370.865 208.639 368.2 208.639C365.697 208.639 363.637 209.508 362.022 211.247C360.488 212.907 359.721 215.555 359.721 219.192V252.036C359.721 252.826 359.438 253.538 358.873 254.17C358.307 254.723 357.581 255 356.692 255H341.792C340.904 255 340.137 254.723 339.491 254.17C338.925 253.617 338.643 252.905 338.643 252.036V219.192C338.643 215.555 337.835 212.907 336.22 211.247C334.605 209.508 332.505 208.639 329.921 208.639C327.417 208.639 325.358 209.508 323.743 211.247C322.128 212.907 321.32 215.516 321.32 219.073V252.036C321.32 252.826 321.037 253.538 320.472 254.17C319.907 254.723 319.18 255 318.292 255H303.028Z" fill="#2142B2"/>
<path d="M366.297 231.527C366.297 240.429 358.913 247.717 349.713 247.717C340.514 247.717 333.13 240.429 333.13 231.527C333.13 222.626 340.514 215.337 349.713 215.337C358.913 215.337 366.297 222.626 366.297 231.527Z" fill="#2ED9FF" stroke="white" stroke-width="4"/>
<rect x="300.625" y="179" width="20.5251" height="10.0077" rx="2" fill="#2ED9FF"/>
</g>
</g>
<path d="M313.064 272.8V284H310.872V276.736L307.72 281.936H307.464L304.312 276.752V284H302.104V272.8H304.376L307.592 278.096L310.792 272.8H313.064ZM327.775 282.544C326.644 283.664 325.268 284.224 323.647 284.224C322.026 284.224 320.65 283.664 319.519 282.544C318.399 281.413 317.839 280.032 317.839 278.4C317.839 276.768 318.399 275.392 319.519 274.272C320.65 273.141 322.026 272.576 323.647 272.576C325.268 272.576 326.644 273.141 327.775 274.272C328.906 275.392 329.471 276.768 329.471 278.4C329.471 280.032 328.906 281.413 327.775 282.544ZM321.071 281.04C321.764 281.723 322.623 282.064 323.647 282.064C324.671 282.064 325.53 281.723 326.223 281.04C326.916 280.347 327.263 279.467 327.263 278.4C327.263 277.333 326.916 276.453 326.223 275.76C325.53 275.067 324.671 274.72 323.647 274.72C322.623 274.72 321.764 275.067 321.071 275.76C320.378 276.453 320.031 277.333 320.031 278.4C320.031 279.467 320.378 280.347 321.071 281.04ZM345.183 272.8V284H342.991V276.736L339.839 281.936H339.583L336.431 276.752V284H334.223V272.8H336.495L339.711 278.096L342.911 272.8H345.183ZM352.678 281.888H357.398V284H350.47V272.8H357.318V274.912H352.678V277.296H356.918V279.376H352.678V281.888ZM368.634 272.8H370.842V284H369.162L364.362 277.152V284H362.154V272.8H363.834L368.634 279.632V272.8ZM383.528 272.8V274.912H380.504V284H378.296V274.912H375.288V272.8H383.528ZM391.472 284.224C390.362 284.224 389.429 283.979 388.672 283.488C387.914 282.987 387.381 282.309 387.072 281.456L388.96 280.352C389.397 281.493 390.256 282.064 391.536 282.064C392.154 282.064 392.608 281.952 392.896 281.728C393.184 281.504 393.328 281.221 393.328 280.88C393.328 280.485 393.152 280.181 392.8 279.968C392.448 279.744 391.818 279.504 390.912 279.248C390.41 279.099 389.984 278.949 389.632 278.8C389.29 278.651 388.944 278.453 388.592 278.208C388.25 277.952 387.989 277.632 387.808 277.248C387.626 276.864 387.536 276.416 387.536 275.904C387.536 274.891 387.893 274.085 388.608 273.488C389.333 272.88 390.202 272.576 391.216 272.576C392.122 272.576 392.917 272.8 393.6 273.248C394.293 273.685 394.832 274.299 395.216 275.088L393.36 276.16C392.912 275.2 392.197 274.72 391.216 274.72C390.757 274.72 390.394 274.827 390.128 275.04C389.872 275.243 389.744 275.509 389.744 275.84C389.744 276.192 389.888 276.48 390.176 276.704C390.474 276.917 391.04 277.152 391.872 277.408C392.213 277.515 392.469 277.6 392.64 277.664C392.821 277.717 393.061 277.808 393.36 277.936C393.669 278.053 393.904 278.165 394.064 278.272C394.234 278.379 394.426 278.523 394.64 278.704C394.853 278.885 395.013 279.072 395.12 279.264C395.237 279.456 395.333 279.691 395.408 279.968C395.493 280.235 395.536 280.528 395.536 280.848C395.536 281.883 395.157 282.704 394.4 283.312C393.653 283.92 392.677 284.224 391.472 284.224Z" fill="#2142B2"/>
<defs>
<filter id="filter0_d" x="0" y="0" width="697" height="434" filterUnits="userSpaceOnUse" color-interpolation-filters="sRGB">
<feFlood flood-opacity="0" result="BackgroundImageFix"/>
<feColorMatrix in="SourceAlpha" type="matrix" values="0 0 0 0 0 0 0 0 0 0 0 0 0 0 0 0 0 0 127 0" result="hardAlpha"/>
<feOffset/>
<feGaussianBlur stdDeviation="10"/>
<feColorMatrix type="matrix" values="0 0 0 0 0 0 0 0 0 0 0 0 0 0 0 0 0 0 0.15 0"/>
<feBlend mode="normal" in2="BackgroundImageFix" result="effect1_dropShadow"/>
<feBlend mode="normal" in="SourceGraphic" in2="effect1_dropShadow" result="shape"/>
</filter>
<filter id="filter1_b" x="-59" y="-59" width="815" height="552" filterUnits="userSpaceOnUse" color-interpolation-filters="sRGB">
<feFlood flood-opacity="0" result="BackgroundImageFix"/>
<feGaussianBlur in="BackgroundImage" stdDeviation="40"/>
<feComposite in2="SourceAlpha" operator="in" result="effect1_backgroundBlur"/>
<feBlend mode="normal" in="SourceGraphic" in2="effect1_backgroundBlur" result="shape"/>
</filter>
<filter id="filter2_d" x="280" y="159" width="158" height="136" filterUnits="userSpaceOnUse" color-interpolation-filters="sRGB">
<feFlood flood-opacity="0" result="BackgroundImageFix"/>
<feColorMatrix in="SourceAlpha" type="matrix" values="0 0 0 0 0 0 0 0 0 0 0 0 0 0 0 0 0 0 127 0" result="hardAlpha"/>
<feOffset dx="10" dy="10"/>
<feGaussianBlur stdDeviation="15"/>
<feColorMatrix type="matrix" values="0 0 0 0 0 0 0 0 0 0 0 0 0 0 0 0 0 0 0.15 0"/>
<feBlend mode="normal" in2="BackgroundImageFix" result="effect1_dropShadow"/>
<feBlend mode="normal" in="SourceGraphic" in2="effect1_dropShadow" result="shape"/>
</filter>
</defs>
</svg>
