<svg width="158" height="136" viewBox="0 0 158 136" fill="none" xmlns="http://www.w3.org/2000/svg">
<g filter="url(#filter0_d)">
<path d="M23.0284 96C22.2208 96 21.494 95.7233 20.848 95.17C20.2827 94.5376 20 93.8262 20 93.0357V37.3075C20 36.4379 20.2827 35.7265 20.848 35.1732C21.494 34.6199 22.2208 34.3432 23.0284 34.3432H37.0803C37.9687 34.3432 38.6955 34.6199 39.2608 35.1732C39.8261 35.7265 40.1088 36.4379 40.1088 37.3075V41.3389C42.047 39.0465 44.5505 37.1098 47.6193 35.5289C50.6881 33.948 54.1607 33.1575 58.0371 33.1575C66.9205 33.1575 73.0177 36.5565 76.3288 43.3546C78.267 40.3508 80.9724 37.9003 84.445 36.0032C87.9176 34.1061 91.6325 33.1575 95.5896 33.1575C102.212 33.1575 107.582 35.3708 111.701 39.7974C115.9 44.145 118 50.6664 118 59.3616V93.0357C118 93.8262 117.717 94.5376 117.152 95.17C116.587 95.7233 115.86 96 114.972 96H100.072C99.1834 96 98.4162 95.7233 97.7701 95.17C97.2048 94.6167 96.9221 93.9053 96.9221 93.0357V60.1916C96.9221 56.5555 96.1145 53.9074 94.4994 52.2474C92.965 50.5083 90.8653 49.6388 88.2002 49.6388C85.6967 49.6388 83.6374 50.5083 82.0222 52.2474C80.4878 53.9074 79.7206 56.5555 79.7206 60.1916V93.0357C79.7206 93.8262 79.438 94.5376 78.8727 95.17C78.3074 95.7233 77.5806 96 76.6922 96H61.7923C60.904 96 60.1368 95.7233 59.4907 95.17C58.9254 94.6167 58.6428 93.9053 58.6428 93.0357V60.1916C58.6428 56.5555 57.8352 53.9074 56.22 52.2474C54.6049 50.5083 52.5051 49.6388 49.9209 49.6388C47.4174 49.6388 45.3581 50.5083 43.7429 52.2474C42.1277 53.9074 41.3201 56.5159 41.3201 60.0731V93.0357C41.3201 93.8262 41.0375 94.5376 40.4722 95.17C39.9069 95.7233 39.1801 96 38.2917 96H23.0284Z" fill="#2142B2"/>
<path d="M86.2974 72.5272C86.2974 81.4285 78.9131 88.7173 69.7135 88.7173C60.5139 88.7173 53.1297 81.4285 53.1297 72.5272C53.1297 63.6258 60.5139 56.337 69.7135 56.337C78.9131 56.337 86.2974 63.6258 86.2974 72.5272Z" fill="#2ED9FF" stroke="white" stroke-width="4"/>
<rect x="20.6247" y="20" width="20.5251" height="10.0077" rx="2" fill="#2ED9FF"/>
</g>
<defs>
<filter id="filter0_d" x="0" y="0" width="158" height="136" filterUnits="userSpaceOnUse" color-interpolation-filters="sRGB">
<feFlood flood-opacity="0" result="BackgroundImageFix"/>
<feColorMatrix in="SourceAlpha" type="matrix" values="0 0 0 0 0 0 0 0 0 0 0 0 0 0 0 0 0 0 127 0"/>
<feOffset dx="10" dy="10"/>
<feGaussianBlur stdDeviation="15"/>
<feColorMatrix type="matrix" values="0 0 0 0 0 0 0 0 0 0 0 0 0 0 0 0 0 0 0.15 0"/>
<feBlend mode="normal" in2="BackgroundImageFix" result="effect1_dropShadow"/>
<feBlend mode="normal" in="SourceGraphic" in2="effect1_dropShadow" result="shape"/>
</filter>
</defs>
</svg>
