<svg width="226" height="130" viewBox="0 0 226 130" fill="none" xmlns="http://www.w3.org/2000/svg">
<path d="M40.9093 125.192C39.7999 125.192 38.8399 124.952 38.0293 124.472C37.2293 123.981 36.6106 123.304 36.1733 122.44C35.7359 121.565 35.5173 120.557 35.5173 119.416C35.5173 118.264 35.7359 117.256 36.1733 116.392C36.6106 115.517 37.2293 114.835 38.0293 114.344C38.8399 113.853 39.7999 113.608 40.9093 113.608C42.2213 113.608 43.2933 113.928 44.1253 114.568C44.9573 115.208 45.4853 116.104 45.7093 117.256H43.8212C43.6719 116.605 43.3519 116.088 42.8612 115.704C42.3706 115.32 41.7146 115.128 40.8933 115.128C39.7733 115.128 38.8879 115.512 38.2373 116.28C37.5866 117.037 37.2613 118.083 37.2613 119.416C37.2613 120.739 37.5866 121.779 38.2373 122.536C38.8879 123.293 39.7733 123.672 40.8933 123.672C41.7146 123.672 42.3706 123.491 42.8612 123.128C43.3519 122.765 43.6719 122.269 43.8212 121.64H45.7093C45.4853 122.749 44.9573 123.619 44.1253 124.248C43.2933 124.877 42.2213 125.192 40.9093 125.192ZM47.5095 125V113.48H49.2055V125H47.5095ZM52.3133 115.56C51.9933 115.56 51.7266 115.464 51.5133 115.272C51.3106 115.069 51.2093 114.819 51.2093 114.52C51.2093 114.221 51.3106 113.976 51.5133 113.784C51.7266 113.581 51.9933 113.48 52.3133 113.48C52.6333 113.48 52.8946 113.581 53.0973 113.784C53.3106 113.976 53.4173 114.221 53.4173 114.52C53.4173 114.819 53.3106 115.069 53.0973 115.272C52.8946 115.464 52.6333 115.56 52.3133 115.56ZM51.4653 125V117.064H53.1613V125H51.4653ZM59.1601 125.192C58.3815 125.192 57.6828 125.016 57.0641 124.664C56.4561 124.312 55.9761 123.827 55.6241 123.208C55.2828 122.579 55.1121 121.853 55.1121 121.032C55.1121 120.211 55.2828 119.491 55.6241 118.872C55.9761 118.243 56.4561 117.752 57.0641 117.4C57.6828 117.048 58.3815 116.872 59.1601 116.872C60.1415 116.872 60.9628 117.128 61.6241 117.64C62.2961 118.152 62.7281 118.845 62.9201 119.72H61.1441C61.0375 119.283 60.8028 118.941 60.4401 118.696C60.0775 118.451 59.6508 118.328 59.1601 118.328C58.7441 118.328 58.3601 118.435 58.0081 118.648C57.6561 118.851 57.3735 119.155 57.1601 119.56C56.9468 119.955 56.8401 120.445 56.8401 121.032C56.8401 121.619 56.9468 122.115 57.1601 122.52C57.3735 122.915 57.6561 123.219 58.0081 123.432C58.3601 123.645 58.7441 123.752 59.1601 123.752C59.6508 123.752 60.0775 123.629 60.4401 123.384C60.8028 123.139 61.0375 122.792 61.1441 122.344H62.9201C62.7388 123.197 62.3121 123.885 61.6401 124.408C60.9681 124.931 60.1415 125.192 59.1601 125.192ZM64.7595 125V113.48H66.4555V120.344L69.4955 117.064H71.5275L68.1515 120.664L72.0235 125H69.8795L66.4555 120.936V125H64.7595ZM80.6969 125C79.9182 125 79.2995 124.813 78.8409 124.44C78.3822 124.056 78.1529 123.379 78.1529 122.408V118.488H76.7929V117.064H78.1529L78.3609 115.048H79.8489V117.064H82.0889V118.488H79.8489V122.408C79.8489 122.845 79.9395 123.149 80.1209 123.32C80.3129 123.48 80.6382 123.56 81.0969 123.56H82.0089V125H80.6969ZM87.3465 125.192C86.5892 125.192 85.9065 125.021 85.2985 124.68C84.7012 124.328 84.2265 123.843 83.8745 123.224C83.5225 122.595 83.3465 121.864 83.3465 121.032C83.3465 120.2 83.5225 119.475 83.8745 118.856C84.2372 118.227 84.7225 117.741 85.3305 117.4C85.9385 117.048 86.6158 116.872 87.3625 116.872C88.1198 116.872 88.7972 117.048 89.3945 117.4C90.0025 117.741 90.4825 118.227 90.8345 118.856C91.1972 119.475 91.3785 120.2 91.3785 121.032C91.3785 121.864 91.1972 122.595 90.8345 123.224C90.4825 123.843 90.0025 124.328 89.3945 124.68C88.7865 125.021 88.1038 125.192 87.3465 125.192ZM87.3465 123.736C87.7518 123.736 88.1252 123.635 88.4665 123.432C88.8185 123.229 89.1012 122.931 89.3145 122.536C89.5278 122.131 89.6345 121.629 89.6345 121.032C89.6345 120.435 89.5278 119.939 89.3145 119.544C89.1118 119.139 88.8345 118.835 88.4825 118.632C88.1412 118.429 87.7678 118.328 87.3625 118.328C86.9572 118.328 86.5785 118.429 86.2265 118.632C85.8852 118.835 85.6078 119.139 85.3945 119.544C85.1812 119.939 85.0745 120.435 85.0745 121.032C85.0745 121.629 85.1812 122.131 85.3945 122.536C85.6078 122.931 85.8852 123.229 86.2265 123.432C86.5678 123.635 86.9412 123.736 87.3465 123.736ZM101.004 125.192C100.225 125.192 99.5265 125.016 98.9079 124.664C98.2999 124.312 97.8199 123.827 97.4679 123.208C97.1265 122.579 96.9559 121.853 96.9559 121.032C96.9559 120.211 97.1265 119.491 97.4679 118.872C97.8199 118.243 98.2999 117.752 98.9079 117.4C99.5265 117.048 100.225 116.872 101.004 116.872C101.985 116.872 102.807 117.128 103.468 117.64C104.14 118.152 104.572 118.845 104.764 119.72H102.988C102.881 119.283 102.647 118.941 102.284 118.696C101.921 118.451 101.495 118.328 101.004 118.328C100.588 118.328 100.204 118.435 99.8519 118.648C99.4999 118.851 99.2172 119.155 99.0039 119.56C98.7905 119.955 98.6839 120.445 98.6839 121.032C98.6839 121.619 98.7905 122.115 99.0039 122.52C99.2172 122.915 99.4999 123.219 99.8519 123.432C100.204 123.645 100.588 123.752 101.004 123.752C101.495 123.752 101.921 123.629 102.284 123.384C102.647 123.139 102.881 122.792 102.988 122.344H104.764C104.583 123.197 104.156 123.885 103.484 124.408C102.812 124.931 101.985 125.192 101.004 125.192ZM106.603 125V113.48H108.299V118.344C108.566 117.885 108.934 117.528 109.403 117.272C109.883 117.005 110.411 116.872 110.987 116.872C111.937 116.872 112.683 117.171 113.227 117.768C113.771 118.365 114.043 119.256 114.043 120.44V125H112.363V120.616C112.363 119.08 111.75 118.312 110.523 118.312C109.883 118.312 109.35 118.536 108.923 118.984C108.507 119.432 108.299 120.072 108.299 120.904V125H106.603ZM119.753 125.192C118.995 125.192 118.313 125.021 117.705 124.68C117.107 124.328 116.633 123.843 116.281 123.224C115.929 122.595 115.753 121.864 115.753 121.032C115.753 120.2 115.929 119.475 116.281 118.856C116.643 118.227 117.129 117.741 117.737 117.4C118.345 117.048 119.022 116.872 119.769 116.872C120.526 116.872 121.203 117.048 121.801 117.4C122.409 117.741 122.889 118.227 123.241 118.856C123.603 119.475 123.785 120.2 123.785 121.032C123.785 121.864 123.603 122.595 123.241 123.224C122.889 123.843 122.409 124.328 121.801 124.68C121.193 125.021 120.51 125.192 119.753 125.192ZM119.753 123.736C120.158 123.736 120.531 123.635 120.873 123.432C121.225 123.229 121.507 122.931 121.721 122.536C121.934 122.131 122.041 121.629 122.041 121.032C122.041 120.435 121.934 119.939 121.721 119.544C121.518 119.139 121.241 118.835 120.889 118.632C120.547 118.429 120.174 118.328 119.769 118.328C119.363 118.328 118.985 118.429 118.633 118.632C118.291 118.835 118.014 119.139 117.801 119.544C117.587 119.939 117.481 120.435 117.481 121.032C117.481 121.629 117.587 122.131 117.801 122.536C118.014 122.931 118.291 123.229 118.633 123.432C118.974 123.635 119.347 123.736 119.753 123.736ZM129.331 125.192C128.574 125.192 127.891 125.021 127.283 124.68C126.686 124.328 126.211 123.843 125.859 123.224C125.507 122.595 125.331 121.864 125.331 121.032C125.331 120.2 125.507 119.475 125.859 118.856C126.222 118.227 126.707 117.741 127.315 117.4C127.923 117.048 128.6 116.872 129.347 116.872C130.104 116.872 130.782 117.048 131.379 117.4C131.987 117.741 132.467 118.227 132.819 118.856C133.182 119.475 133.363 120.2 133.363 121.032C133.363 121.864 133.182 122.595 132.819 123.224C132.467 123.843 131.987 124.328 131.379 124.68C130.771 125.021 130.088 125.192 129.331 125.192ZM129.331 123.736C129.736 123.736 130.11 123.635 130.451 123.432C130.803 123.229 131.086 122.931 131.299 122.536C131.512 122.131 131.619 121.629 131.619 121.032C131.619 120.435 131.512 119.939 131.299 119.544C131.096 119.139 130.819 118.835 130.467 118.632C130.126 118.429 129.752 118.328 129.347 118.328C128.942 118.328 128.563 118.429 128.211 118.632C127.87 118.835 127.592 119.139 127.379 119.544C127.166 119.939 127.059 120.435 127.059 121.032C127.059 121.629 127.166 122.131 127.379 122.536C127.592 122.931 127.87 123.229 128.211 123.432C128.552 123.635 128.926 123.736 129.331 123.736ZM138.365 125.192C137.362 125.192 136.536 124.947 135.885 124.456C135.234 123.965 134.861 123.315 134.765 122.504H136.477C136.562 122.867 136.765 123.181 137.085 123.448C137.405 123.704 137.826 123.832 138.349 123.832C138.861 123.832 139.234 123.725 139.469 123.512C139.704 123.299 139.821 123.053 139.821 122.776C139.821 122.371 139.656 122.099 139.325 121.96C139.005 121.811 138.557 121.677 137.981 121.56C137.533 121.464 137.085 121.336 136.637 121.176C136.2 121.016 135.832 120.792 135.533 120.504C135.245 120.205 135.101 119.805 135.101 119.304C135.101 118.611 135.368 118.035 135.901 117.576C136.434 117.107 137.181 116.872 138.141 116.872C139.026 116.872 139.741 117.085 140.285 117.512C140.84 117.939 141.165 118.541 141.261 119.32H139.629C139.576 118.979 139.416 118.712 139.149 118.52C138.893 118.328 138.546 118.232 138.109 118.232C137.682 118.232 137.352 118.323 137.117 118.504C136.882 118.675 136.765 118.899 136.765 119.176C136.765 119.453 136.925 119.672 137.245 119.832C137.576 119.992 138.008 120.136 138.541 120.264C139.074 120.381 139.565 120.52 140.013 120.68C140.472 120.829 140.84 121.053 141.117 121.352C141.394 121.651 141.533 122.088 141.533 122.664C141.544 123.389 141.261 123.992 140.685 124.472C140.12 124.952 139.346 125.192 138.365 125.192ZM147.097 125.192C146.318 125.192 145.625 125.021 145.017 124.68C144.419 124.328 143.95 123.843 143.609 123.224C143.267 122.605 143.097 121.885 143.097 121.064C143.097 120.232 143.262 119.501 143.593 118.872C143.934 118.243 144.403 117.752 145.001 117.4C145.609 117.048 146.313 116.872 147.113 116.872C147.891 116.872 148.569 117.048 149.145 117.4C149.721 117.741 150.169 118.2 150.489 118.776C150.809 119.352 150.969 119.987 150.969 120.68C150.969 120.787 150.963 120.904 150.953 121.032C150.953 121.149 150.947 121.283 150.937 121.432H144.761C144.814 122.2 145.065 122.787 145.513 123.192C145.971 123.587 146.499 123.784 147.097 123.784C147.577 123.784 147.977 123.677 148.297 123.464C148.627 123.24 148.873 122.941 149.033 122.568H150.729C150.515 123.315 150.089 123.939 149.449 124.44C148.819 124.941 148.035 125.192 147.097 125.192ZM147.097 118.264C146.531 118.264 146.03 118.435 145.593 118.776C145.155 119.107 144.889 119.608 144.793 120.28H149.273C149.241 119.661 149.022 119.171 148.617 118.808C148.211 118.445 147.705 118.264 147.097 118.264ZM159.448 125.192C158.776 125.192 158.221 125.08 157.784 124.856C157.346 124.632 157.021 124.339 156.808 123.976C156.594 123.603 156.488 123.197 156.488 122.76C156.488 121.992 156.786 121.384 157.384 120.936C157.981 120.488 158.834 120.264 159.944 120.264H162.024V120.12C162.024 119.501 161.853 119.037 161.512 118.728C161.181 118.419 160.749 118.264 160.216 118.264C159.746 118.264 159.336 118.381 158.984 118.616C158.642 118.84 158.434 119.176 158.36 119.624H156.664C156.717 119.048 156.909 118.557 157.24 118.152C157.581 117.736 158.008 117.421 158.52 117.208C159.042 116.984 159.613 116.872 160.232 116.872C161.341 116.872 162.2 117.165 162.808 117.752C163.416 118.328 163.72 119.117 163.72 120.12V125H162.248L162.104 123.64C161.88 124.077 161.554 124.445 161.128 124.744C160.701 125.043 160.141 125.192 159.448 125.192ZM159.784 123.816C160.242 123.816 160.626 123.709 160.936 123.496C161.256 123.272 161.501 122.979 161.672 122.616C161.853 122.253 161.965 121.853 162.008 121.416H160.12C159.448 121.416 158.968 121.533 158.68 121.768C158.402 122.003 158.264 122.296 158.264 122.648C158.264 123.011 158.397 123.299 158.664 123.512C158.941 123.715 159.314 123.816 159.784 123.816ZM170.128 125V118.488H168.992V117.064H170.128V115.912C170.128 115.048 170.342 114.429 170.768 114.056C171.206 113.672 171.819 113.48 172.608 113.48H173.44V114.92H172.864C172.491 114.92 172.224 115 172.064 115.16C171.904 115.309 171.824 115.565 171.824 115.928V117.064H176.848V125H175.152V118.488H171.824V125H170.128ZM176.016 115.736C175.696 115.736 175.43 115.64 175.216 115.448C175.014 115.245 174.912 114.989 174.912 114.68C174.912 114.381 175.014 114.136 175.216 113.944C175.43 113.752 175.696 113.656 176.016 113.656C176.336 113.656 176.598 113.752 176.8 113.944C177.014 114.136 177.12 114.381 177.12 114.68C177.12 114.989 177.014 115.245 176.8 115.448C176.598 115.64 176.336 115.736 176.016 115.736ZM179.103 125V113.48H180.799V125H179.103ZM186.659 125.192C185.88 125.192 185.187 125.021 184.579 124.68C183.982 124.328 183.512 123.843 183.171 123.224C182.83 122.605 182.659 121.885 182.659 121.064C182.659 120.232 182.824 119.501 183.155 118.872C183.496 118.243 183.966 117.752 184.563 117.4C185.171 117.048 185.875 116.872 186.675 116.872C187.454 116.872 188.131 117.048 188.707 117.4C189.283 117.741 189.731 118.2 190.051 118.776C190.371 119.352 190.531 119.987 190.531 120.68C190.531 120.787 190.526 120.904 190.515 121.032C190.515 121.149 190.51 121.283 190.499 121.432H184.323C184.376 122.2 184.627 122.787 185.075 123.192C185.534 123.587 186.062 123.784 186.659 123.784C187.139 123.784 187.539 123.677 187.859 123.464C188.19 123.24 188.435 122.941 188.595 122.568H190.291C190.078 123.315 189.651 123.939 189.011 124.44C188.382 124.941 187.598 125.192 186.659 125.192ZM186.659 118.264C186.094 118.264 185.592 118.435 185.155 118.776C184.718 119.107 184.451 119.608 184.355 120.28H188.835C188.803 119.661 188.584 119.171 188.179 118.808C187.774 118.445 187.267 118.264 186.659 118.264Z" fill="#242A3D"/>
<path opacity="0.1" d="M65 40C65 21.1438 65 11.7157 70.8579 5.85786C76.7157 0 86.1438 0 105 0H121C139.856 0 149.284 0 155.142 5.85786C161 11.7157 161 21.1438 161 40V56C161 74.8562 161 84.2843 155.142 90.1421C149.284 96 139.856 96 121 96H105C86.1438 96 76.7157 96 70.8579 90.1421C65 84.2843 65 74.8562 65 56V40Z" fill="#2ED9FF"/>
<path d="M125 52V57.3333C125 58.0406 124.719 58.7189 124.219 59.219C123.719 59.719 123.041 60 122.333 60H103.667C102.959 60 102.281 59.719 101.781 59.219C101.281 58.7189 101 58.0406 101 57.3333V52" stroke="#2142B2" stroke-width="2" stroke-linecap="round" stroke-linejoin="round"/>
<path d="M119.667 42.6667L113 36L106.333 42.6667" stroke="#2ED9FF" stroke-width="2" stroke-linecap="round" stroke-linejoin="round"/>
<path d="M113 36V52" stroke="#2ED9FF" stroke-width="2" stroke-linecap="round" stroke-linejoin="round"/>
</svg>
