<svg width="170" height="151" viewBox="0 0 170 151" fill="none" xmlns="http://www.w3.org/2000/svg">
<path opacity="0.5" d="M84.856 147.244C84.24 147.852 83.492 148.156 82.612 148.156C81.732 148.156 80.984 147.852 80.368 147.244C79.76 146.636 79.456 145.888 79.456 145C79.456 144.112 79.76 143.364 80.368 142.756C80.984 142.148 81.732 141.844 82.612 141.844C83.492 141.844 84.24 142.148 84.856 142.756C85.472 143.364 85.78 144.112 85.78 145C85.78 145.888 85.472 146.636 84.856 147.244ZM82.612 147.136C83.212 147.136 83.716 146.932 84.124 146.524C84.532 146.116 84.736 145.608 84.736 145C84.736 144.392 84.532 143.884 84.124 143.476C83.716 143.068 83.212 142.864 82.612 142.864C82.02 142.864 81.52 143.068 81.112 143.476C80.704 143.884 80.5 144.392 80.5 145C80.5 145.608 80.704 146.116 81.112 146.524C81.52 146.932 82.02 147.136 82.612 147.136ZM88.0548 143.008C88.3988 142.264 89.0228 141.892 89.9268 141.892V142.984C89.4148 142.96 88.9748 143.096 88.6068 143.392C88.2388 143.688 88.0548 144.164 88.0548 144.82V148H87.0107V142H88.0548V143.008Z" fill="#242A3D"/>
<path d="M5.568 112.8C7.09333 112.8 8.35733 113.344 9.36 114.432C10.3733 115.509 10.88 116.832 10.88 118.4C10.88 119.968 10.3733 121.296 9.36 122.384C8.35733 123.461 7.09333 124 5.568 124H1.2V112.8H5.568ZM5.568 122.592C6.70933 122.592 7.64267 122.192 8.368 121.392C9.09333 120.592 9.456 119.595 9.456 118.4C9.456 117.205 9.09333 116.208 8.368 115.408C7.64267 114.608 6.70933 114.208 5.568 114.208H2.688V122.592H5.568ZM13.9324 117.344C14.391 116.352 15.223 115.856 16.4284 115.856V117.312C15.7457 117.28 15.159 117.461 14.6684 117.856C14.1777 118.251 13.9324 118.885 13.9324 119.76V124H12.5404V116H13.9324V117.344ZM23.9769 116H25.3689V124H23.9769V122.624C23.2835 123.68 22.2755 124.208 20.9529 124.208C19.8329 124.208 18.8782 123.803 18.0889 122.992C17.2995 122.171 16.9049 121.173 16.9049 120C16.9049 118.827 17.2995 117.835 18.0889 117.024C18.8782 116.203 19.8329 115.792 20.9529 115.792C22.2755 115.792 23.2835 116.32 23.9769 117.376V116ZM21.1289 122.864C21.9395 122.864 22.6169 122.592 23.1609 122.048C23.7049 121.493 23.9769 120.811 23.9769 120C23.9769 119.189 23.7049 118.512 23.1609 117.968C22.6169 117.413 21.9395 117.136 21.1289 117.136C20.3289 117.136 19.6569 117.413 19.1129 117.968C18.5689 118.512 18.2969 119.189 18.2969 120C18.2969 120.811 18.5689 121.493 19.1129 122.048C19.6569 122.592 20.3289 122.864 21.1289 122.864ZM34.1179 116H35.4939V123.664C35.4939 124.848 35.0939 125.765 34.2939 126.416C33.4939 127.077 32.5339 127.408 31.4139 127.408C30.5179 127.408 29.7445 127.237 29.0939 126.896C28.4432 126.565 27.9525 126.085 27.6219 125.456L28.8379 124.768C29.2752 125.664 30.1445 126.112 31.4459 126.112C32.2779 126.112 32.9285 125.893 33.3979 125.456C33.8779 125.019 34.1179 124.421 34.1179 123.664V122.528C33.4139 123.595 32.4112 124.128 31.1099 124.128C29.9685 124.128 29.0032 123.723 28.2139 122.912C27.4245 122.101 27.0299 121.115 27.0299 119.952C27.0299 118.789 27.4245 117.808 28.2139 117.008C29.0032 116.197 29.9685 115.792 31.1099 115.792C32.4219 115.792 33.4245 116.32 34.1179 117.376V116ZM29.2379 121.984C29.7819 122.528 30.4592 122.8 31.2699 122.8C32.0805 122.8 32.7579 122.528 33.3019 121.984C33.8459 121.44 34.1179 120.763 34.1179 119.952C34.1179 119.152 33.8459 118.48 33.3019 117.936C32.7579 117.392 32.0805 117.12 31.2699 117.12C30.4592 117.12 29.7819 117.392 29.2379 117.936C28.6939 118.48 28.4219 119.152 28.4219 119.952C28.4219 120.763 28.6939 121.44 29.2379 121.984ZM42.3069 114.544C42.0402 114.544 41.8162 114.453 41.6349 114.272C41.4535 114.091 41.3629 113.872 41.3629 113.616C41.3629 113.36 41.4535 113.141 41.6349 112.96C41.8162 112.768 42.0402 112.672 42.3069 112.672C42.5629 112.672 42.7815 112.768 42.9629 112.96C43.1442 113.141 43.2349 113.36 43.2349 113.616C43.2349 113.872 43.1442 114.091 42.9629 114.272C42.7815 114.453 42.5629 114.544 42.3069 114.544ZM41.6029 124V116H42.9949V124H41.6029ZM53.7585 115.792C54.6545 115.792 55.3798 116.085 55.9345 116.672C56.4892 117.248 56.7665 118.032 56.7665 119.024V124H55.3745V119.072C55.3745 118.453 55.2145 117.973 54.8945 117.632C54.5745 117.291 54.1478 117.12 53.6145 117.12C53.0172 117.12 52.5372 117.323 52.1745 117.728C51.8225 118.123 51.6465 118.731 51.6465 119.552V124H50.2545V119.072C50.2545 118.453 50.0998 117.973 49.7905 117.632C49.4918 117.291 49.0812 117.12 48.5585 117.12C47.9718 117.12 47.4812 117.323 47.0865 117.728C46.7025 118.133 46.5105 118.741 46.5105 119.552V124H45.1185V116H46.5105V117.072C47.0545 116.219 47.8492 115.792 48.8945 115.792C49.9718 115.792 50.7558 116.245 51.2465 117.152C51.8012 116.245 52.6385 115.792 53.7585 115.792ZM65.3206 116H66.7126V124H65.3206V122.624C64.6273 123.68 63.6193 124.208 62.2966 124.208C61.1766 124.208 60.222 123.803 59.4326 122.992C58.6433 122.171 58.2486 121.173 58.2486 120C58.2486 118.827 58.6433 117.835 59.4326 117.024C60.222 116.203 61.1766 115.792 62.2966 115.792C63.6193 115.792 64.6273 116.32 65.3206 117.376V116ZM62.4726 122.864C63.2833 122.864 63.9606 122.592 64.5046 122.048C65.0486 121.493 65.3206 120.811 65.3206 120C65.3206 119.189 65.0486 118.512 64.5046 117.968C63.9606 117.413 63.2833 117.136 62.4726 117.136C61.6726 117.136 61.0006 117.413 60.4566 117.968C59.9126 118.512 59.6406 119.189 59.6406 120C59.6406 120.811 59.9126 121.493 60.4566 122.048C61.0006 122.592 61.6726 122.864 62.4726 122.864ZM75.4616 116H76.8376V123.664C76.8376 124.848 76.4376 125.765 75.6376 126.416C74.8376 127.077 73.8776 127.408 72.7576 127.408C71.8616 127.408 71.0883 127.237 70.4376 126.896C69.787 126.565 69.2963 126.085 68.9656 125.456L70.1816 124.768C70.619 125.664 71.4883 126.112 72.7896 126.112C73.6216 126.112 74.2723 125.893 74.7416 125.456C75.2216 125.019 75.4616 124.421 75.4616 123.664V122.528C74.7576 123.595 73.755 124.128 72.4536 124.128C71.3123 124.128 70.347 123.723 69.5576 122.912C68.7683 122.101 68.3736 121.115 68.3736 119.952C68.3736 118.789 68.7683 117.808 69.5576 117.008C70.347 116.197 71.3123 115.792 72.4536 115.792C73.7656 115.792 74.7683 116.32 75.4616 117.376V116ZM70.5816 121.984C71.1256 122.528 71.803 122.8 72.6136 122.8C73.4243 122.8 74.1016 122.528 74.6456 121.984C75.1896 121.44 75.4616 120.763 75.4616 119.952C75.4616 119.152 75.1896 118.48 74.6456 117.936C74.1016 117.392 73.4243 117.12 72.6136 117.12C71.803 117.12 71.1256 117.392 70.5816 117.936C70.0376 118.48 69.7656 119.152 69.7656 119.952C69.7656 120.763 70.0376 121.44 70.5816 121.984ZM79.9226 120.64C80.0613 121.355 80.3866 121.909 80.8986 122.304C81.4213 122.699 82.0613 122.896 82.8186 122.896C83.8746 122.896 84.6426 122.507 85.1226 121.728L86.3066 122.4C85.528 123.605 84.3546 124.208 82.7866 124.208C81.5173 124.208 80.4826 123.813 79.6826 123.024C78.8933 122.224 78.4986 121.216 78.4986 120C78.4986 118.795 78.888 117.792 79.6666 116.992C80.4453 116.192 81.4533 115.792 82.6906 115.792C83.864 115.792 84.8186 116.208 85.5546 117.04C86.3013 117.861 86.6746 118.853 86.6746 120.016C86.6746 120.219 86.6586 120.427 86.6266 120.64H79.9226ZM82.6906 117.104C81.944 117.104 81.3253 117.317 80.8346 117.744C80.344 118.16 80.04 118.72 79.9226 119.424H85.2666C85.1493 118.667 84.8506 118.091 84.3706 117.696C83.8906 117.301 83.3306 117.104 82.6906 117.104ZM89.1623 118.16C89.1623 118.469 89.3169 118.72 89.6263 118.912C89.9356 119.093 90.3089 119.243 90.7463 119.36C91.1836 119.467 91.6209 119.595 92.0583 119.744C92.4956 119.883 92.8689 120.128 93.1783 120.48C93.4876 120.821 93.6423 121.264 93.6423 121.808C93.6423 122.533 93.3596 123.115 92.7943 123.552C92.2396 123.989 91.5249 124.208 90.6503 124.208C89.8716 124.208 89.2049 124.037 88.6503 123.696C88.0956 123.355 87.7009 122.901 87.4663 122.336L88.6663 121.648C88.7943 122.032 89.0343 122.336 89.3863 122.56C89.7383 122.784 90.1596 122.896 90.6503 122.896C91.1089 122.896 91.4876 122.811 91.7863 122.64C92.0849 122.459 92.2343 122.181 92.2343 121.808C92.2343 121.499 92.0796 121.253 91.7703 121.072C91.4609 120.88 91.0876 120.731 90.6503 120.624C90.2129 120.507 89.7756 120.373 89.3383 120.224C88.9009 120.075 88.5276 119.829 88.2183 119.488C87.9089 119.147 87.7543 118.709 87.7543 118.176C87.7543 117.483 88.0209 116.912 88.5543 116.464C89.0983 116.016 89.7756 115.792 90.5863 115.792C91.2369 115.792 91.8129 115.941 92.3143 116.24C92.8263 116.528 93.2103 116.933 93.4663 117.456L92.2983 118.112C92.0103 117.429 91.4396 117.088 90.5863 117.088C90.1916 117.088 89.8556 117.184 89.5783 117.376C89.3009 117.557 89.1623 117.819 89.1623 118.16ZM103.642 117.344H101.514V121.68C101.514 122.075 101.589 122.357 101.738 122.528C101.898 122.688 102.138 122.773 102.458 122.784C102.778 122.784 103.173 122.773 103.642 122.752V124C102.426 124.16 101.536 124.064 100.97 123.712C100.405 123.349 100.122 122.672 100.122 121.68V117.344H98.5384V116H100.122V114.176L101.514 113.76V116H103.642V117.344ZM111.636 122.992C110.815 123.803 109.817 124.208 108.644 124.208C107.471 124.208 106.473 123.803 105.652 122.992C104.841 122.181 104.436 121.184 104.436 120C104.436 118.816 104.841 117.819 105.652 117.008C106.473 116.197 107.471 115.792 108.644 115.792C109.817 115.792 110.815 116.197 111.636 117.008C112.457 117.819 112.868 118.816 112.868 120C112.868 121.184 112.457 122.181 111.636 122.992ZM108.644 122.848C109.444 122.848 110.116 122.576 110.66 122.032C111.204 121.488 111.476 120.811 111.476 120C111.476 119.189 111.204 118.512 110.66 117.968C110.116 117.424 109.444 117.152 108.644 117.152C107.855 117.152 107.188 117.424 106.644 117.968C106.1 118.512 105.828 119.189 105.828 120C105.828 120.811 106.1 121.488 106.644 122.032C107.188 122.576 107.855 122.848 108.644 122.848ZM124.029 116H125.421V124H124.029V122.848C123.464 123.755 122.6 124.208 121.437 124.208C120.498 124.208 119.746 123.915 119.181 123.328C118.616 122.731 118.333 121.925 118.333 120.912V116H119.725V120.832C119.725 121.483 119.901 121.989 120.253 122.352C120.605 122.704 121.09 122.88 121.709 122.88C122.402 122.88 122.962 122.667 123.389 122.24C123.816 121.803 124.029 121.136 124.029 120.24V116ZM131.956 115.792C133.076 115.792 134.031 116.203 134.82 117.024C135.61 117.835 136.004 118.827 136.004 120C136.004 121.173 135.61 122.171 134.82 122.992C134.031 123.803 133.076 124.208 131.956 124.208C130.634 124.208 129.626 123.68 128.932 122.624V127.2H127.54V116H128.932V117.376C129.626 116.32 130.634 115.792 131.956 115.792ZM131.78 122.864C132.58 122.864 133.252 122.592 133.796 122.048C134.34 121.493 134.612 120.811 134.612 120C134.612 119.189 134.34 118.512 133.796 117.968C133.252 117.413 132.58 117.136 131.78 117.136C130.97 117.136 130.292 117.413 129.748 117.968C129.204 118.512 128.932 119.189 128.932 120C128.932 120.811 129.204 121.493 129.748 122.048C130.292 122.592 130.97 122.864 131.78 122.864ZM137.665 124V112.32H139.057V124H137.665ZM147.933 122.992C147.112 123.803 146.114 124.208 144.941 124.208C143.768 124.208 142.77 123.803 141.949 122.992C141.138 122.181 140.733 121.184 140.733 120C140.733 118.816 141.138 117.819 141.949 117.008C142.77 116.197 143.768 115.792 144.941 115.792C146.114 115.792 147.112 116.197 147.933 117.008C148.754 117.819 149.165 118.816 149.165 120C149.165 121.184 148.754 122.181 147.933 122.992ZM144.941 122.848C145.741 122.848 146.413 122.576 146.957 122.032C147.501 121.488 147.773 120.811 147.773 120C147.773 119.189 147.501 118.512 146.957 117.968C146.413 117.424 145.741 117.152 144.941 117.152C144.152 117.152 143.485 117.424 142.941 117.968C142.397 118.512 142.125 119.189 142.125 120C142.125 120.811 142.397 121.488 142.941 122.032C143.485 122.576 144.152 122.848 144.941 122.848ZM157.43 116H158.822V124H157.43V122.624C156.737 123.68 155.729 124.208 154.406 124.208C153.286 124.208 152.331 123.803 151.542 122.992C150.753 122.171 150.358 121.173 150.358 120C150.358 118.827 150.753 117.835 151.542 117.024C152.331 116.203 153.286 115.792 154.406 115.792C155.729 115.792 156.737 116.32 157.43 117.376V116ZM154.582 122.864C155.393 122.864 156.07 122.592 156.614 122.048C157.158 121.493 157.43 120.811 157.43 120C157.43 119.189 157.158 118.512 156.614 117.968C156.07 117.413 155.393 117.136 154.582 117.136C153.782 117.136 153.11 117.413 152.566 117.968C152.022 118.512 151.75 119.189 151.75 120C151.75 120.811 152.022 121.493 152.566 122.048C153.11 122.592 153.782 122.864 154.582 122.864ZM167.555 112.8H168.947V124H167.555V122.624C166.862 123.68 165.854 124.208 164.531 124.208C163.411 124.208 162.456 123.803 161.667 122.992C160.878 122.171 160.483 121.173 160.483 120C160.483 118.827 160.878 117.835 161.667 117.024C162.456 116.203 163.411 115.792 164.531 115.792C165.854 115.792 166.862 116.32 167.555 117.376V112.8ZM164.707 122.864C165.518 122.864 166.195 122.592 166.739 122.048C167.283 121.493 167.555 120.811 167.555 120C167.555 119.189 167.283 118.512 166.739 117.968C166.195 117.413 165.518 117.136 164.707 117.136C163.907 117.136 163.235 117.413 162.691 117.968C162.147 118.512 161.875 119.189 161.875 120C161.875 120.811 162.147 121.493 162.691 122.048C163.235 122.592 163.907 122.864 164.707 122.864Z" fill="#242A3D"/>
<path opacity="0.1" d="M37 40C37 21.1438 37 11.7157 42.8579 5.85786C48.7157 0 58.1438 0 77 0H93C111.856 0 121.284 0 127.142 5.85786C133 11.7157 133 21.1438 133 40V56C133 74.8562 133 84.2843 127.142 90.1421C121.284 96 111.856 96 93 96H77C58.1438 96 48.7157 96 42.8579 90.1421C37 84.2843 37 74.8562 37 56V40Z" fill="#2ED9FF"/>
<path d="M97 52V57.3333C97 58.0406 96.719 58.7189 96.219 59.219C95.7189 59.719 95.0406 60 94.3333 60H75.6667C74.9594 60 74.2811 59.719 73.781 59.219C73.281 58.7189 73 58.0406 73 57.3333V52" stroke="#2142B2" stroke-width="2" stroke-linecap="round" stroke-linejoin="round"/>
<path d="M91.6668 42.6667L85.0002 36L78.3335 42.6667" stroke="#2ED9FF" stroke-width="2" stroke-linecap="round" stroke-linejoin="round"/>
<path d="M85 36V52" stroke="#2ED9FF" stroke-width="2" stroke-linecap="round" stroke-linejoin="round"/>
</svg>
