<svg width="226" height="151" viewBox="0 0 226 151" fill="none" xmlns="http://www.w3.org/2000/svg">
<path d="M19.6594 125V113.8H23.2914C24.6034 113.8 25.6808 114.029 26.5234 114.488C27.3768 114.947 28.0061 115.597 28.4114 116.44C28.8274 117.272 29.0354 118.264 29.0354 119.416C29.0354 120.557 28.8274 121.549 28.4114 122.392C28.0061 123.224 27.3768 123.869 26.5234 124.328C25.6808 124.776 24.6034 125 23.2914 125H19.6594ZM21.3554 123.56H23.2274C24.2408 123.56 25.0408 123.395 25.6274 123.064C26.2248 122.733 26.6514 122.259 26.9074 121.64C27.1741 121.021 27.3074 120.28 27.3074 119.416C27.3074 118.552 27.1741 117.805 26.9074 117.176C26.6514 116.547 26.2248 116.067 25.6274 115.736C25.0408 115.395 24.2408 115.224 23.2274 115.224H21.3554V123.56ZM30.8454 125V117.064H32.3654L32.5094 118.568C32.7868 118.045 33.1708 117.635 33.6614 117.336C34.1628 117.027 34.7654 116.872 35.4694 116.872V118.648H35.0054C34.5361 118.648 34.1148 118.728 33.7414 118.888C33.3788 119.037 33.0854 119.299 32.8614 119.672C32.6481 120.035 32.5414 120.541 32.5414 121.192V125H30.8454ZM39.6116 125.192C38.9396 125.192 38.3849 125.08 37.9476 124.856C37.5102 124.632 37.1849 124.339 36.9716 123.976C36.7582 123.603 36.6516 123.197 36.6516 122.76C36.6516 121.992 36.9502 121.384 37.5476 120.936C38.1449 120.488 38.9982 120.264 40.1076 120.264H42.1876V120.12C42.1876 119.501 42.0169 119.037 41.6756 118.728C41.3449 118.419 40.9129 118.264 40.3796 118.264C39.9102 118.264 39.4996 118.381 39.1476 118.616C38.8062 118.84 38.5982 119.176 38.5236 119.624H36.8276C36.8809 119.048 37.0729 118.557 37.4036 118.152C37.7449 117.736 38.1716 117.421 38.6836 117.208C39.2062 116.984 39.7769 116.872 40.3956 116.872C41.5049 116.872 42.3636 117.165 42.9716 117.752C43.5796 118.328 43.8836 119.117 43.8836 120.12V125H42.4116L42.2676 123.64C42.0436 124.077 41.7182 124.445 41.2916 124.744C40.8649 125.043 40.3049 125.192 39.6116 125.192ZM39.9476 123.816C40.4062 123.816 40.7902 123.709 41.0996 123.496C41.4196 123.272 41.6649 122.979 41.8356 122.616C42.0169 122.253 42.1289 121.853 42.1716 121.416H40.2836C39.6116 121.416 39.1316 121.533 38.8436 121.768C38.5662 122.003 38.4276 122.296 38.4276 122.648C38.4276 123.011 38.5609 123.299 38.8276 123.512C39.1049 123.715 39.4782 123.816 39.9476 123.816ZM49.1091 122.568C48.6931 122.568 48.3091 122.52 47.9571 122.424L47.2691 123.096C47.3864 123.171 47.5304 123.235 47.7011 123.288C47.8717 123.341 48.1117 123.389 48.4211 123.432C48.7304 123.475 49.1517 123.517 49.6851 123.56C50.7411 123.656 51.5037 123.912 51.9731 124.328C52.4424 124.733 52.6771 125.277 52.6771 125.96C52.6771 126.429 52.5491 126.872 52.2931 127.288C52.0477 127.715 51.6584 128.056 51.1251 128.312C50.6024 128.579 49.9304 128.712 49.1091 128.712C47.9997 128.712 47.0984 128.499 46.4051 128.072C45.7224 127.656 45.3811 127.021 45.3811 126.168C45.3811 125.837 45.4664 125.507 45.6371 125.176C45.8184 124.856 46.1011 124.552 46.4851 124.264C46.2611 124.168 46.0637 124.067 45.8931 123.96C45.7331 123.843 45.5891 123.725 45.4611 123.608V123.224L46.8371 121.816C46.2184 121.283 45.9091 120.584 45.9091 119.72C45.9091 119.197 46.0317 118.723 46.2771 118.296C46.5331 117.859 46.9011 117.512 47.3811 117.256C47.8611 117 48.4371 116.872 49.1091 116.872C49.5571 116.872 49.9731 116.936 50.3571 117.064H53.3171V118.184L51.9091 118.264C52.1651 118.701 52.2931 119.187 52.2931 119.72C52.2931 120.253 52.1651 120.733 51.9091 121.16C51.6637 121.587 51.3011 121.928 50.8211 122.184C50.3517 122.44 49.7811 122.568 49.1091 122.568ZM49.1091 121.24C49.5997 121.24 49.9944 121.112 50.2931 120.856C50.6024 120.589 50.7571 120.216 50.7571 119.736C50.7571 119.245 50.6024 118.872 50.2931 118.616C49.9944 118.36 49.5997 118.232 49.1091 118.232C48.6077 118.232 48.2024 118.36 47.8931 118.616C47.5944 118.872 47.4451 119.245 47.4451 119.736C47.4451 120.216 47.5944 120.589 47.8931 120.856C48.2024 121.112 48.6077 121.24 49.1091 121.24ZM46.9811 126.008C46.9811 126.467 47.1837 126.808 47.5891 127.032C47.9944 127.267 48.5011 127.384 49.1091 127.384C49.6957 127.384 50.1704 127.256 50.5331 127C50.8957 126.755 51.0771 126.424 51.0771 126.008C51.0771 125.699 50.9544 125.432 50.7091 125.208C50.4637 124.995 49.9997 124.861 49.3171 124.808C48.8051 124.776 48.3517 124.728 47.9571 124.664C47.5837 124.867 47.3277 125.085 47.1891 125.32C47.0504 125.555 46.9811 125.784 46.9811 126.008ZM59.8211 115.56C59.5011 115.56 59.2344 115.464 59.0211 115.272C58.8184 115.069 58.7171 114.819 58.7171 114.52C58.7171 114.221 58.8184 113.976 59.0211 113.784C59.2344 113.581 59.5011 113.48 59.8211 113.48C60.1411 113.48 60.4024 113.581 60.6051 113.784C60.8184 113.976 60.9251 114.221 60.9251 114.52C60.9251 114.819 60.8184 115.069 60.6051 115.272C60.4024 115.464 60.1411 115.56 59.8211 115.56ZM58.9731 125V117.064H60.6691V125H58.9731ZM62.9079 125V117.064H64.4119L64.5559 118.184C64.8119 117.779 65.1479 117.459 65.5639 117.224C65.9906 116.989 66.4813 116.872 67.0359 116.872C68.2946 116.872 69.1693 117.368 69.6599 118.36C69.9479 117.901 70.3319 117.539 70.8119 117.272C71.3026 117.005 71.8306 116.872 72.3959 116.872C73.3879 116.872 74.1666 117.171 74.7319 117.768C75.2973 118.365 75.5799 119.256 75.5799 120.44V125H73.8839V120.616C73.8839 119.08 73.2973 118.312 72.1239 118.312C71.5266 118.312 71.0359 118.536 70.6519 118.984C70.2786 119.432 70.0919 120.072 70.0919 120.904V125H68.3959V120.616C68.3959 119.08 67.8039 118.312 66.6199 118.312C66.0333 118.312 65.5479 118.536 65.1639 118.984C64.7906 119.432 64.6039 120.072 64.6039 120.904V125H62.9079ZM80.2522 125.192C79.5802 125.192 79.0255 125.08 78.5882 124.856C78.1509 124.632 77.8255 124.339 77.6122 123.976C77.3989 123.603 77.2922 123.197 77.2922 122.76C77.2922 121.992 77.5909 121.384 78.1882 120.936C78.7855 120.488 79.6389 120.264 80.7482 120.264H82.8282V120.12C82.8282 119.501 82.6575 119.037 82.3162 118.728C81.9855 118.419 81.5535 118.264 81.0202 118.264C80.5509 118.264 80.1402 118.381 79.7882 118.616C79.4469 118.84 79.2389 119.176 79.1642 119.624H77.4682C77.5215 119.048 77.7135 118.557 78.0442 118.152C78.3855 117.736 78.8122 117.421 79.3242 117.208C79.8469 116.984 80.4175 116.872 81.0362 116.872C82.1455 116.872 83.0042 117.165 83.6122 117.752C84.2202 118.328 84.5242 119.117 84.5242 120.12V125H83.0522L82.9082 123.64C82.6842 124.077 82.3589 124.445 81.9322 124.744C81.5055 125.043 80.9455 125.192 80.2522 125.192ZM80.5882 123.816C81.0469 123.816 81.4309 123.709 81.7402 123.496C82.0602 123.272 82.3055 122.979 82.4762 122.616C82.6575 122.253 82.7695 121.853 82.8122 121.416H80.9242C80.2522 121.416 79.7722 121.533 79.4842 121.768C79.2069 122.003 79.0682 122.296 79.0682 122.648C79.0682 123.011 79.2015 123.299 79.4682 123.512C79.7455 123.715 80.1189 123.816 80.5882 123.816ZM89.7497 122.568C89.3337 122.568 88.9497 122.52 88.5977 122.424L87.9097 123.096C88.027 123.171 88.171 123.235 88.3417 123.288C88.5124 123.341 88.7524 123.389 89.0617 123.432C89.371 123.475 89.7924 123.517 90.3257 123.56C91.3817 123.656 92.1444 123.912 92.6137 124.328C93.083 124.733 93.3177 125.277 93.3177 125.96C93.3177 126.429 93.1897 126.872 92.9337 127.288C92.6884 127.715 92.299 128.056 91.7657 128.312C91.243 128.579 90.571 128.712 89.7497 128.712C88.6404 128.712 87.739 128.499 87.0457 128.072C86.363 127.656 86.0217 127.021 86.0217 126.168C86.0217 125.837 86.107 125.507 86.2777 125.176C86.459 124.856 86.7417 124.552 87.1257 124.264C86.9017 124.168 86.7044 124.067 86.5337 123.96C86.3737 123.843 86.2297 123.725 86.1017 123.608V123.224L87.4777 121.816C86.859 121.283 86.5497 120.584 86.5497 119.72C86.5497 119.197 86.6724 118.723 86.9177 118.296C87.1737 117.859 87.5417 117.512 88.0217 117.256C88.5017 117 89.0777 116.872 89.7497 116.872C90.1977 116.872 90.6137 116.936 90.9977 117.064H93.9577V118.184L92.5497 118.264C92.8057 118.701 92.9337 119.187 92.9337 119.72C92.9337 120.253 92.8057 120.733 92.5497 121.16C92.3044 121.587 91.9417 121.928 91.4617 122.184C90.9924 122.44 90.4217 122.568 89.7497 122.568ZM89.7497 121.24C90.2404 121.24 90.635 121.112 90.9337 120.856C91.243 120.589 91.3977 120.216 91.3977 119.736C91.3977 119.245 91.243 118.872 90.9337 118.616C90.635 118.36 90.2404 118.232 89.7497 118.232C89.2484 118.232 88.843 118.36 88.5337 118.616C88.235 118.872 88.0857 119.245 88.0857 119.736C88.0857 120.216 88.235 120.589 88.5337 120.856C88.843 121.112 89.2484 121.24 89.7497 121.24ZM87.6217 126.008C87.6217 126.467 87.8244 126.808 88.2297 127.032C88.635 127.267 89.1417 127.384 89.7497 127.384C90.3364 127.384 90.811 127.256 91.1737 127C91.5364 126.755 91.7177 126.424 91.7177 126.008C91.7177 125.699 91.595 125.432 91.3497 125.208C91.1044 124.995 90.6404 124.861 89.9577 124.808C89.4457 124.776 88.9924 124.728 88.5977 124.664C88.2244 124.867 87.9684 125.085 87.8297 125.32C87.691 125.555 87.6217 125.784 87.6217 126.008ZM98.8699 125.192C98.0913 125.192 97.3979 125.021 96.7899 124.68C96.1926 124.328 95.7233 123.843 95.3819 123.224C95.0406 122.605 94.8699 121.885 94.8699 121.064C94.8699 120.232 95.0353 119.501 95.3659 118.872C95.7073 118.243 96.1766 117.752 96.7739 117.4C97.3819 117.048 98.0859 116.872 98.8859 116.872C99.6646 116.872 100.342 117.048 100.918 117.4C101.494 117.741 101.942 118.2 102.262 118.776C102.582 119.352 102.742 119.987 102.742 120.68C102.742 120.787 102.737 120.904 102.726 121.032C102.726 121.149 102.721 121.283 102.71 121.432H96.5339C96.5873 122.2 96.8379 122.787 97.2859 123.192C97.7446 123.587 98.2726 123.784 98.8699 123.784C99.3499 123.784 99.7499 123.677 100.07 123.464C100.401 123.24 100.646 122.941 100.806 122.568H102.502C102.289 123.315 101.862 123.939 101.222 124.44C100.593 124.941 99.8086 125.192 98.8699 125.192ZM98.8699 118.264C98.3046 118.264 97.8033 118.435 97.3659 118.776C96.9286 119.107 96.6619 119.608 96.5659 120.28H101.046C101.014 119.661 100.795 119.171 100.39 118.808C99.9846 118.445 99.4779 118.264 98.8699 118.264ZM107.67 125.192C106.667 125.192 105.84 124.947 105.19 124.456C104.539 123.965 104.166 123.315 104.07 122.504H105.782C105.867 122.867 106.07 123.181 106.39 123.448C106.71 123.704 107.131 123.832 107.654 123.832C108.166 123.832 108.539 123.725 108.774 123.512C109.008 123.299 109.126 123.053 109.126 122.776C109.126 122.371 108.96 122.099 108.63 121.96C108.31 121.811 107.862 121.677 107.286 121.56C106.838 121.464 106.39 121.336 105.942 121.176C105.504 121.016 105.136 120.792 104.838 120.504C104.55 120.205 104.406 119.805 104.406 119.304C104.406 118.611 104.672 118.035 105.206 117.576C105.739 117.107 106.486 116.872 107.446 116.872C108.331 116.872 109.046 117.085 109.59 117.512C110.144 117.939 110.47 118.541 110.566 119.32H108.934C108.88 118.979 108.72 118.712 108.454 118.52C108.198 118.328 107.851 118.232 107.414 118.232C106.987 118.232 106.656 118.323 106.422 118.504C106.187 118.675 106.07 118.899 106.07 119.176C106.07 119.453 106.23 119.672 106.55 119.832C106.88 119.992 107.312 120.136 107.846 120.264C108.379 120.381 108.87 120.52 109.318 120.68C109.776 120.829 110.144 121.053 110.422 121.352C110.699 121.651 110.838 122.088 110.838 122.664C110.848 123.389 110.566 123.992 109.99 124.472C109.424 124.952 108.651 125.192 107.67 125.192ZM120.048 125C119.27 125 118.651 124.813 118.192 124.44C117.734 124.056 117.504 123.379 117.504 122.408V118.488H116.144V117.064H117.504L117.712 115.048H119.2V117.064H121.44V118.488H119.2V122.408C119.2 122.845 119.291 123.149 119.472 123.32C119.664 123.48 119.99 123.56 120.448 123.56H121.36V125H120.048ZM126.698 125.192C125.941 125.192 125.258 125.021 124.65 124.68C124.053 124.328 123.578 123.843 123.226 123.224C122.874 122.595 122.698 121.864 122.698 121.032C122.698 120.2 122.874 119.475 123.226 118.856C123.589 118.227 124.074 117.741 124.682 117.4C125.29 117.048 125.967 116.872 126.714 116.872C127.471 116.872 128.149 117.048 128.746 117.4C129.354 117.741 129.834 118.227 130.186 118.856C130.549 119.475 130.73 120.2 130.73 121.032C130.73 121.864 130.549 122.595 130.186 123.224C129.834 123.843 129.354 124.328 128.746 124.68C128.138 125.021 127.455 125.192 126.698 125.192ZM126.698 123.736C127.103 123.736 127.477 123.635 127.818 123.432C128.17 123.229 128.453 122.931 128.666 122.536C128.879 122.131 128.986 121.629 128.986 121.032C128.986 120.435 128.879 119.939 128.666 119.544C128.463 119.139 128.186 118.835 127.834 118.632C127.493 118.429 127.119 118.328 126.714 118.328C126.309 118.328 125.93 118.429 125.578 118.632C125.237 118.835 124.959 119.139 124.746 119.544C124.533 119.939 124.426 120.435 124.426 121.032C124.426 121.629 124.533 122.131 124.746 122.536C124.959 122.931 125.237 123.229 125.578 123.432C125.919 123.635 126.293 123.736 126.698 123.736ZM139.523 125.192C138.563 125.192 137.806 124.893 137.251 124.296C136.707 123.699 136.435 122.808 136.435 121.624V117.064H138.131V121.448C138.131 122.984 138.761 123.752 140.019 123.752C140.649 123.752 141.166 123.528 141.571 123.08C141.977 122.632 142.179 121.992 142.179 121.16V117.064H143.875V125H142.371L142.243 123.608C141.998 124.099 141.635 124.488 141.155 124.776C140.686 125.053 140.142 125.192 139.523 125.192ZM146.033 128.52V117.064H147.553L147.729 118.296C147.985 117.923 148.337 117.592 148.785 117.304C149.233 117.016 149.809 116.872 150.513 116.872C151.281 116.872 151.958 117.053 152.545 117.416C153.132 117.779 153.59 118.275 153.921 118.904C154.262 119.533 154.433 120.248 154.433 121.048C154.433 121.848 154.262 122.563 153.921 123.192C153.59 123.811 153.132 124.301 152.545 124.664C151.958 125.016 151.276 125.192 150.497 125.192C149.878 125.192 149.329 125.069 148.849 124.824C148.38 124.579 148.006 124.232 147.729 123.784V128.52H146.033ZM150.209 123.72C150.934 123.72 151.532 123.475 152.001 122.984C152.47 122.483 152.705 121.832 152.705 121.032C152.705 120.509 152.598 120.045 152.385 119.64C152.172 119.235 151.878 118.92 151.505 118.696C151.132 118.461 150.7 118.344 150.209 118.344C149.484 118.344 148.886 118.595 148.417 119.096C147.958 119.597 147.729 120.243 147.729 121.032C147.729 121.832 147.958 122.483 148.417 122.984C148.886 123.475 149.484 123.72 150.209 123.72ZM156.267 125V113.48H157.963V125H156.267ZM163.823 125.192C163.066 125.192 162.383 125.021 161.775 124.68C161.178 124.328 160.703 123.843 160.351 123.224C159.999 122.595 159.823 121.864 159.823 121.032C159.823 120.2 159.999 119.475 160.351 118.856C160.714 118.227 161.199 117.741 161.807 117.4C162.415 117.048 163.092 116.872 163.839 116.872C164.596 116.872 165.274 117.048 165.871 117.4C166.479 117.741 166.959 118.227 167.311 118.856C167.674 119.475 167.855 120.2 167.855 121.032C167.855 121.864 167.674 122.595 167.311 123.224C166.959 123.843 166.479 124.328 165.871 124.68C165.263 125.021 164.58 125.192 163.823 125.192ZM163.823 123.736C164.228 123.736 164.602 123.635 164.943 123.432C165.295 123.229 165.578 122.931 165.791 122.536C166.004 122.131 166.111 121.629 166.111 121.032C166.111 120.435 166.004 119.939 165.791 119.544C165.588 119.139 165.311 118.835 164.959 118.632C164.618 118.429 164.244 118.328 163.839 118.328C163.434 118.328 163.055 118.429 162.703 118.632C162.362 118.835 162.084 119.139 161.871 119.544C161.658 119.939 161.551 120.435 161.551 121.032C161.551 121.629 161.658 122.131 161.871 122.536C162.084 122.931 162.362 123.229 162.703 123.432C163.044 123.635 163.418 123.736 163.823 123.736ZM172.377 125.192C171.705 125.192 171.151 125.08 170.713 124.856C170.276 124.632 169.951 124.339 169.737 123.976C169.524 123.603 169.417 123.197 169.417 122.76C169.417 121.992 169.716 121.384 170.313 120.936C170.911 120.488 171.764 120.264 172.873 120.264H174.953V120.12C174.953 119.501 174.783 119.037 174.441 118.728C174.111 118.419 173.679 118.264 173.145 118.264C172.676 118.264 172.265 118.381 171.913 118.616C171.572 118.84 171.364 119.176 171.289 119.624H169.593C169.647 119.048 169.839 118.557 170.169 118.152C170.511 117.736 170.937 117.421 171.449 117.208C171.972 116.984 172.543 116.872 173.161 116.872C174.271 116.872 175.129 117.165 175.737 117.752C176.345 118.328 176.649 119.117 176.649 120.12V125H175.177L175.033 123.64C174.809 124.077 174.484 124.445 174.057 124.744C173.631 125.043 173.071 125.192 172.377 125.192ZM172.713 123.816C173.172 123.816 173.556 123.709 173.865 123.496C174.185 123.272 174.431 122.979 174.601 122.616C174.783 122.253 174.895 121.853 174.937 121.416H173.049C172.377 121.416 171.897 121.533 171.609 121.768C171.332 122.003 171.193 122.296 171.193 122.648C171.193 123.011 171.327 123.299 171.593 123.512C171.871 123.715 172.244 123.816 172.713 123.816ZM182.243 125.192C181.475 125.192 180.797 125.011 180.211 124.648C179.624 124.285 179.165 123.789 178.835 123.16C178.504 122.531 178.339 121.816 178.339 121.016C178.339 120.216 178.504 119.507 178.835 118.888C179.165 118.259 179.624 117.768 180.211 117.416C180.808 117.053 181.491 116.872 182.259 116.872C182.888 116.872 183.437 116.995 183.907 117.24C184.387 117.485 184.76 117.832 185.027 118.28V113.48H186.723V125H185.203L185.027 123.768C184.771 124.141 184.419 124.472 183.971 124.76C183.523 125.048 182.947 125.192 182.243 125.192ZM182.547 123.72C183.272 123.72 183.864 123.469 184.323 122.968C184.792 122.467 185.027 121.821 185.027 121.032C185.027 120.232 184.792 119.587 184.323 119.096C183.864 118.595 183.272 118.344 182.547 118.344C181.821 118.344 181.224 118.595 180.755 119.096C180.285 119.587 180.051 120.232 180.051 121.032C180.051 121.555 180.157 122.019 180.371 122.424C180.584 122.829 180.877 123.149 181.251 123.384C181.635 123.608 182.067 123.72 182.547 123.72ZM196.604 125.192C195.847 125.192 195.164 125.021 194.556 124.68C193.959 124.328 193.484 123.843 193.132 123.224C192.78 122.595 192.604 121.864 192.604 121.032C192.604 120.2 192.78 119.475 193.132 118.856C193.495 118.227 193.98 117.741 194.588 117.4C195.196 117.048 195.874 116.872 196.62 116.872C197.378 116.872 198.055 117.048 198.652 117.4C199.26 117.741 199.74 118.227 200.092 118.856C200.455 119.475 200.636 120.2 200.636 121.032C200.636 121.864 200.455 122.595 200.092 123.224C199.74 123.843 199.26 124.328 198.652 124.68C198.044 125.021 197.362 125.192 196.604 125.192ZM196.604 123.736C197.01 123.736 197.383 123.635 197.724 123.432C198.076 123.229 198.359 122.931 198.572 122.536C198.786 122.131 198.892 121.629 198.892 121.032C198.892 120.435 198.786 119.939 198.572 119.544C198.37 119.139 198.092 118.835 197.74 118.632C197.399 118.429 197.026 118.328 196.62 118.328C196.215 118.328 195.836 118.429 195.484 118.632C195.143 118.835 194.866 119.139 194.652 119.544C194.439 119.939 194.332 120.435 194.332 121.032C194.332 121.629 194.439 122.131 194.652 122.536C194.866 122.931 195.143 123.229 195.484 123.432C195.826 123.635 196.199 123.736 196.604 123.736ZM202.47 125V117.064H203.99L204.134 118.568C204.412 118.045 204.796 117.635 205.286 117.336C205.788 117.027 206.39 116.872 207.094 116.872V118.648H206.63C206.161 118.648 205.74 118.728 205.366 118.888C205.004 119.037 204.71 119.299 204.486 119.672C204.273 120.035 204.166 120.541 204.166 121.192V125H202.47ZM40.7617 146.192C39.983 146.192 39.2844 146.016 38.6657 145.664C38.0577 145.312 37.5777 144.827 37.2257 144.208C36.8844 143.579 36.7137 142.853 36.7137 142.032C36.7137 141.211 36.8844 140.491 37.2257 139.872C37.5777 139.243 38.0577 138.752 38.6657 138.4C39.2844 138.048 39.983 137.872 40.7617 137.872C41.743 137.872 42.5644 138.128 43.2257 138.64C43.8977 139.152 44.3297 139.845 44.5217 140.72H42.7457C42.639 140.283 42.4044 139.941 42.0417 139.696C41.679 139.451 41.2524 139.328 40.7617 139.328C40.3457 139.328 39.9617 139.435 39.6097 139.648C39.2577 139.851 38.975 140.155 38.7617 140.56C38.5484 140.955 38.4417 141.445 38.4417 142.032C38.4417 142.619 38.5484 143.115 38.7617 143.52C38.975 143.915 39.2577 144.219 39.6097 144.432C39.9617 144.645 40.3457 144.752 40.7617 144.752C41.2524 144.752 41.679 144.629 42.0417 144.384C42.4044 144.139 42.639 143.792 42.7457 143.344H44.5217C44.3404 144.197 43.9137 144.885 43.2417 145.408C42.5697 145.931 41.743 146.192 40.7617 146.192ZM46.3611 146V134.48H48.0571V146H46.3611ZM51.1648 136.56C50.8448 136.56 50.5781 136.464 50.3648 136.272C50.1621 136.069 50.0608 135.819 50.0608 135.52C50.0608 135.221 50.1621 134.976 50.3648 134.784C50.5781 134.581 50.8448 134.48 51.1648 134.48C51.4848 134.48 51.7461 134.581 51.9488 134.784C52.1621 134.976 52.2688 135.221 52.2688 135.52C52.2688 135.819 52.1621 136.069 51.9488 136.272C51.7461 136.464 51.4848 136.56 51.1648 136.56ZM50.3168 146V138.064H52.0128V146H50.3168ZM58.0117 146.192C57.233 146.192 56.5344 146.016 55.9157 145.664C55.3077 145.312 54.8277 144.827 54.4757 144.208C54.1344 143.579 53.9637 142.853 53.9637 142.032C53.9637 141.211 54.1344 140.491 54.4757 139.872C54.8277 139.243 55.3077 138.752 55.9157 138.4C56.5344 138.048 57.233 137.872 58.0117 137.872C58.993 137.872 59.8144 138.128 60.4757 138.64C61.1477 139.152 61.5797 139.845 61.7717 140.72H59.9957C59.889 140.283 59.6544 139.941 59.2917 139.696C58.929 139.451 58.5024 139.328 58.0117 139.328C57.5957 139.328 57.2117 139.435 56.8597 139.648C56.5077 139.851 56.225 140.155 56.0117 140.56C55.7984 140.955 55.6917 141.445 55.6917 142.032C55.6917 142.619 55.7984 143.115 56.0117 143.52C56.225 143.915 56.5077 144.219 56.8597 144.432C57.2117 144.645 57.5957 144.752 58.0117 144.752C58.5024 144.752 58.929 144.629 59.2917 144.384C59.6544 144.139 59.889 143.792 59.9957 143.344H61.7717C61.5904 144.197 61.1637 144.885 60.4917 145.408C59.8197 145.931 58.993 146.192 58.0117 146.192ZM63.6111 146V134.48H65.3071V141.344L68.3471 138.064H70.3791L67.0031 141.664L70.8751 146H68.7311L65.3071 141.936V146H63.6111ZM79.5484 146C78.7698 146 78.1511 145.813 77.6924 145.44C77.2338 145.056 77.0044 144.379 77.0044 143.408V139.488H75.6444V138.064H77.0044L77.2124 136.048H78.7004V138.064H80.9404V139.488H78.7004V143.408C78.7004 143.845 78.7911 144.149 78.9724 144.32C79.1644 144.48 79.4898 144.56 79.9484 144.56H80.8604V146H79.5484ZM86.1981 146.192C85.4407 146.192 84.7581 146.021 84.1501 145.68C83.5527 145.328 83.0781 144.843 82.7261 144.224C82.3741 143.595 82.1981 142.864 82.1981 142.032C82.1981 141.2 82.3741 140.475 82.7261 139.856C83.0887 139.227 83.5741 138.741 84.1821 138.4C84.7901 138.048 85.4674 137.872 86.2141 137.872C86.9714 137.872 87.6487 138.048 88.2461 138.4C88.8541 138.741 89.3341 139.227 89.6861 139.856C90.0487 140.475 90.2301 141.2 90.2301 142.032C90.2301 142.864 90.0487 143.595 89.6861 144.224C89.3341 144.843 88.8541 145.328 88.2461 145.68C87.6381 146.021 86.9554 146.192 86.1981 146.192ZM86.1981 144.736C86.6034 144.736 86.9767 144.635 87.3181 144.432C87.6701 144.229 87.9527 143.931 88.1661 143.536C88.3794 143.131 88.4861 142.629 88.4861 142.032C88.4861 141.435 88.3794 140.939 88.1661 140.544C87.9634 140.139 87.6861 139.835 87.3341 139.632C86.9927 139.429 86.6194 139.328 86.2141 139.328C85.8087 139.328 85.4301 139.429 85.0781 139.632C84.7367 139.835 84.4594 140.139 84.2461 140.544C84.0327 140.939 83.9261 141.435 83.9261 142.032C83.9261 142.629 84.0327 143.131 84.2461 143.536C84.4594 143.931 84.7367 144.229 85.0781 144.432C85.4194 144.635 85.7927 144.736 86.1981 144.736ZM99.8554 146.192C99.0768 146.192 98.3781 146.016 97.7594 145.664C97.1514 145.312 96.6714 144.827 96.3194 144.208C95.9781 143.579 95.8074 142.853 95.8074 142.032C95.8074 141.211 95.9781 140.491 96.3194 139.872C96.6714 139.243 97.1514 138.752 97.7594 138.4C98.3781 138.048 99.0768 137.872 99.8554 137.872C100.837 137.872 101.658 138.128 102.319 138.64C102.991 139.152 103.423 139.845 103.615 140.72H101.839C101.733 140.283 101.498 139.941 101.135 139.696C100.773 139.451 100.346 139.328 99.8554 139.328C99.4394 139.328 99.0554 139.435 98.7034 139.648C98.3514 139.851 98.0688 140.155 97.8554 140.56C97.6421 140.955 97.5354 141.445 97.5354 142.032C97.5354 142.619 97.6421 143.115 97.8554 143.52C98.0688 143.915 98.3514 144.219 98.7034 144.432C99.0554 144.645 99.4394 144.752 99.8554 144.752C100.346 144.752 100.773 144.629 101.135 144.384C101.498 144.139 101.733 143.792 101.839 143.344H103.615C103.434 144.197 103.007 144.885 102.335 145.408C101.663 145.931 100.837 146.192 99.8554 146.192ZM105.455 146V134.48H107.151V139.344C107.417 138.885 107.785 138.528 108.255 138.272C108.735 138.005 109.263 137.872 109.839 137.872C110.788 137.872 111.535 138.171 112.079 138.768C112.623 139.365 112.895 140.256 112.895 141.44V146H111.215V141.616C111.215 140.08 110.601 139.312 109.375 139.312C108.735 139.312 108.201 139.536 107.775 139.984C107.359 140.432 107.151 141.072 107.151 141.904V146H105.455ZM118.604 146.192C117.847 146.192 117.164 146.021 116.556 145.68C115.959 145.328 115.484 144.843 115.132 144.224C114.78 143.595 114.604 142.864 114.604 142.032C114.604 141.2 114.78 140.475 115.132 139.856C115.495 139.227 115.98 138.741 116.588 138.4C117.196 138.048 117.874 137.872 118.62 137.872C119.378 137.872 120.055 138.048 120.652 138.4C121.26 138.741 121.74 139.227 122.092 139.856C122.455 140.475 122.636 141.2 122.636 142.032C122.636 142.864 122.455 143.595 122.092 144.224C121.74 144.843 121.26 145.328 120.652 145.68C120.044 146.021 119.362 146.192 118.604 146.192ZM118.604 144.736C119.01 144.736 119.383 144.635 119.724 144.432C120.076 144.229 120.359 143.931 120.572 143.536C120.786 143.131 120.892 142.629 120.892 142.032C120.892 141.435 120.786 140.939 120.572 140.544C120.37 140.139 120.092 139.835 119.74 139.632C119.399 139.429 119.026 139.328 118.62 139.328C118.215 139.328 117.836 139.429 117.484 139.632C117.143 139.835 116.866 140.139 116.652 140.544C116.439 140.939 116.332 141.435 116.332 142.032C116.332 142.629 116.439 143.131 116.652 143.536C116.866 143.931 117.143 144.229 117.484 144.432C117.826 144.635 118.199 144.736 118.604 144.736ZM128.182 146.192C127.425 146.192 126.742 146.021 126.134 145.68C125.537 145.328 125.062 144.843 124.71 144.224C124.358 143.595 124.182 142.864 124.182 142.032C124.182 141.2 124.358 140.475 124.71 139.856C125.073 139.227 125.558 138.741 126.166 138.4C126.774 138.048 127.452 137.872 128.198 137.872C128.956 137.872 129.633 138.048 130.23 138.4C130.838 138.741 131.318 139.227 131.67 139.856C132.033 140.475 132.214 141.2 132.214 142.032C132.214 142.864 132.033 143.595 131.67 144.224C131.318 144.843 130.838 145.328 130.23 145.68C129.622 146.021 128.94 146.192 128.182 146.192ZM128.182 144.736C128.588 144.736 128.961 144.635 129.302 144.432C129.654 144.229 129.937 143.931 130.15 143.536C130.364 143.131 130.47 142.629 130.47 142.032C130.47 141.435 130.364 140.939 130.15 140.544C129.948 140.139 129.67 139.835 129.318 139.632C128.977 139.429 128.604 139.328 128.198 139.328C127.793 139.328 127.414 139.429 127.062 139.632C126.721 139.835 126.444 140.139 126.23 140.544C126.017 140.939 125.91 141.435 125.91 142.032C125.91 142.629 126.017 143.131 126.23 143.536C126.444 143.931 126.721 144.229 127.062 144.432C127.404 144.635 127.777 144.736 128.182 144.736ZM137.217 146.192C136.214 146.192 135.387 145.947 134.737 145.456C134.086 144.965 133.713 144.315 133.617 143.504H135.329C135.414 143.867 135.617 144.181 135.937 144.448C136.257 144.704 136.678 144.832 137.201 144.832C137.713 144.832 138.086 144.725 138.321 144.512C138.555 144.299 138.673 144.053 138.673 143.776C138.673 143.371 138.507 143.099 138.177 142.96C137.857 142.811 137.409 142.677 136.833 142.56C136.385 142.464 135.937 142.336 135.489 142.176C135.051 142.016 134.683 141.792 134.385 141.504C134.097 141.205 133.953 140.805 133.953 140.304C133.953 139.611 134.219 139.035 134.753 138.576C135.286 138.107 136.033 137.872 136.993 137.872C137.878 137.872 138.593 138.085 139.137 138.512C139.691 138.939 140.017 139.541 140.113 140.32H138.481C138.427 139.979 138.267 139.712 138.001 139.52C137.745 139.328 137.398 139.232 136.961 139.232C136.534 139.232 136.203 139.323 135.969 139.504C135.734 139.675 135.617 139.899 135.617 140.176C135.617 140.453 135.777 140.672 136.097 140.832C136.427 140.992 136.859 141.136 137.393 141.264C137.926 141.381 138.417 141.52 138.865 141.68C139.323 141.829 139.691 142.053 139.969 142.352C140.246 142.651 140.385 143.088 140.385 143.664C140.395 144.389 140.113 144.992 139.537 145.472C138.971 145.952 138.198 146.192 137.217 146.192ZM145.948 146.192C145.169 146.192 144.476 146.021 143.868 145.68C143.271 145.328 142.801 144.843 142.46 144.224C142.119 143.605 141.948 142.885 141.948 142.064C141.948 141.232 142.113 140.501 142.444 139.872C142.785 139.243 143.255 138.752 143.852 138.4C144.46 138.048 145.164 137.872 145.964 137.872C146.743 137.872 147.42 138.048 147.996 138.4C148.572 138.741 149.02 139.2 149.34 139.776C149.66 140.352 149.82 140.987 149.82 141.68C149.82 141.787 149.815 141.904 149.804 142.032C149.804 142.149 149.799 142.283 149.788 142.432H143.612C143.665 143.2 143.916 143.787 144.364 144.192C144.823 144.587 145.351 144.784 145.948 144.784C146.428 144.784 146.828 144.677 147.148 144.464C147.479 144.24 147.724 143.941 147.884 143.568H149.58C149.367 144.315 148.94 144.939 148.3 145.44C147.671 145.941 146.887 146.192 145.948 146.192ZM145.948 139.264C145.383 139.264 144.881 139.435 144.444 139.776C144.007 140.107 143.74 140.608 143.644 141.28H148.124C148.092 140.661 147.873 140.171 147.468 139.808C147.063 139.445 146.556 139.264 145.948 139.264ZM158.299 146.192C157.627 146.192 157.072 146.08 156.635 145.856C156.198 145.632 155.872 145.339 155.659 144.976C155.446 144.603 155.339 144.197 155.339 143.76C155.339 142.992 155.638 142.384 156.235 141.936C156.832 141.488 157.686 141.264 158.795 141.264H160.875V141.12C160.875 140.501 160.704 140.037 160.363 139.728C160.032 139.419 159.6 139.264 159.067 139.264C158.598 139.264 158.187 139.381 157.835 139.616C157.494 139.84 157.286 140.176 157.211 140.624H155.515C155.568 140.048 155.76 139.557 156.091 139.152C156.432 138.736 156.859 138.421 157.371 138.208C157.894 137.984 158.464 137.872 159.083 137.872C160.192 137.872 161.051 138.165 161.659 138.752C162.267 139.328 162.571 140.117 162.571 141.12V146H161.099L160.955 144.64C160.731 145.077 160.406 145.445 159.979 145.744C159.552 146.043 158.992 146.192 158.299 146.192ZM158.635 144.816C159.094 144.816 159.478 144.709 159.787 144.496C160.107 144.272 160.352 143.979 160.523 143.616C160.704 143.253 160.816 142.853 160.859 142.416H158.971C158.299 142.416 157.819 142.533 157.531 142.768C157.254 143.003 157.115 143.296 157.115 143.648C157.115 144.011 157.248 144.299 157.515 144.512C157.792 144.715 158.166 144.816 158.635 144.816ZM168.98 146V139.488H167.844V138.064H168.98V136.912C168.98 136.048 169.193 135.429 169.62 135.056C170.057 134.672 170.67 134.48 171.46 134.48H172.292V135.92H171.716C171.342 135.92 171.076 136 170.916 136.16C170.756 136.309 170.676 136.565 170.676 136.928V138.064H175.7V146H174.004V139.488H170.676V146H168.98ZM174.868 136.736C174.548 136.736 174.281 136.64 174.068 136.448C173.865 136.245 173.764 135.989 173.764 135.68C173.764 135.381 173.865 135.136 174.068 134.944C174.281 134.752 174.548 134.656 174.868 134.656C175.188 134.656 175.449 134.752 175.652 134.944C175.865 135.136 175.972 135.381 175.972 135.68C175.972 135.989 175.865 136.245 175.652 136.448C175.449 136.64 175.188 136.736 174.868 136.736ZM177.955 146V134.48H179.651V146H177.955ZM185.511 146.192C184.732 146.192 184.039 146.021 183.431 145.68C182.833 145.328 182.364 144.843 182.023 144.224C181.681 143.605 181.511 142.885 181.511 142.064C181.511 141.232 181.676 140.501 182.007 139.872C182.348 139.243 182.817 138.752 183.415 138.4C184.023 138.048 184.727 137.872 185.527 137.872C186.305 137.872 186.983 138.048 187.559 138.4C188.135 138.741 188.583 139.2 188.903 139.776C189.223 140.352 189.383 140.987 189.383 141.68C189.383 141.787 189.377 141.904 189.367 142.032C189.367 142.149 189.361 142.283 189.351 142.432H183.175C183.228 143.2 183.479 143.787 183.927 144.192C184.385 144.587 184.913 144.784 185.511 144.784C185.991 144.784 186.391 144.677 186.711 144.464C187.041 144.24 187.287 143.941 187.447 143.568H189.143C188.929 144.315 188.503 144.939 187.863 145.44C187.233 145.941 186.449 146.192 185.511 146.192ZM185.511 139.264C184.945 139.264 184.444 139.435 184.007 139.776C183.569 140.107 183.303 140.608 183.207 141.28H187.687C187.655 140.661 187.436 140.171 187.031 139.808C186.625 139.445 186.119 139.264 185.511 139.264Z" fill="#242A3D"/>
<path opacity="0.1" d="M65 40C65 21.1438 65 11.7157 70.8579 5.85786C76.7157 0 86.1438 0 105 0H121C139.856 0 149.284 0 155.142 5.85786C161 11.7157 161 21.1438 161 40V56C161 74.8562 161 84.2843 155.142 90.1421C149.284 96 139.856 96 121 96H105C86.1438 96 76.7157 96 70.8579 90.1421C65 84.2843 65 74.8562 65 56V40Z" fill="#2ED9FF"/>
<path d="M125 52V57.3333C125 58.0406 124.719 58.7189 124.219 59.219C123.719 59.719 123.041 60 122.333 60H103.667C102.959 60 102.281 59.719 101.781 59.219C101.281 58.7189 101 58.0406 101 57.3333V52" stroke="#2142B2" stroke-width="2" stroke-linecap="round" stroke-linejoin="round"/>
<path d="M119.667 42.6667L113 36L106.333 42.6667" stroke="#2ED9FF" stroke-width="2" stroke-linecap="round" stroke-linejoin="round"/>
<path d="M113 36V52" stroke="#2ED9FF" stroke-width="2" stroke-linecap="round" stroke-linejoin="round"/>
</svg>
